<svg width="18" height="18" viewBox="0 0 18 18" fill="none" xmlns="http://www.w3.org/2000/svg">
  <path
    d="M14.6572 11.8287L13.243 10.4145L14.6572 9.00031C16.2193 7.43821 16.2193 4.90555 14.6572 3.34345C13.0951 1.78136 10.5624 1.78136 9.00029 3.34345L7.58609 4.75767L6.17188 3.34345L7.58609 1.92924C9.92919 -0.413913 13.7282 -0.413913 16.0714 1.92924C18.4145 4.27239 18.4145 8.07141 16.0714 10.4145L14.6572 11.8287ZM11.8287 14.6572L10.4145 16.0714C8.07139 18.4145 4.27238 18.4145 1.92924 16.0714C-0.413913 13.7282 -0.413913 9.92921 1.92924 7.58611L3.34345 6.17188L4.75766 7.58611L3.34345 9.00031C1.78135 10.5624 1.78135 13.0951 3.34345 14.6572C4.90555 16.2192 7.43819 16.2192 9.00029 14.6572L10.4145 13.2429L11.8287 14.6572ZM11.8287 4.75767L13.243 6.17188L6.17188 13.2429L4.75766 11.8287L11.8287 4.75767Z"
    fill="black" />
</svg>
  