<svg width="58" height="58" viewBox="0 0 58 58" fill="none" xmlns="http://www.w3.org/2000/svg">
  <path
    d="M29 0C35.4901 0 40.7513 5.26122 40.7513 11.7513C40.7513 18.2414 35.4902 23.5026 29.0001 23.5026C22.51 23.5026 17.2488 18.2414 17.2488 11.7513C17.256 5.26414 22.513 0.00712454 28.9994 0H29.0001H29ZM29 19.7199C33.401 19.7199 36.9687 16.1522 36.9687 11.7513C36.9687 7.35034 33.401 3.78257 29 3.78257C24.5991 3.78257 21.0314 7.35034 21.0314 11.7513C21.037 16.15 24.6013 19.7142 28.9995 19.7199H29ZM34.0435 50.4347L33.7913 46.6521C39.323 46.3996 44.5145 45.2483 49.324 43.3411L48.9999 43.4544C52.2781 42.0423 54.2173 40.3224 54.2173 38.8549C54.2173 36.8198 50.4221 33.8568 42.0878 32.1596L42.8443 28.4526C46.7898 29.1652 50.3135 30.4745 53.5052 32.2983L53.3423 32.2126C57.193 34.5805 58 37.13 58 38.8548C58 41.0588 56.6988 44.2487 50.5004 46.9243C45.6501 48.8836 40.0347 50.1466 34.1621 50.43L34.0436 50.4345L34.0435 50.4347ZM26.4152 50.5608C19.8971 50.4589 13.6923 49.251 7.93696 47.1173L8.32169 47.2422C1.44252 44.501 0 41.1698 0 38.86C0 37.1351 0.806981 34.573 4.65766 32.2177C7.68654 30.4797 11.2102 29.1705 14.9526 28.4885L15.1557 28.4579L15.9122 32.1649C7.57782 33.8619 3.78263 36.8173 3.78263 38.86C3.78263 40.4033 6.05222 42.2694 9.71373 43.7295C14.7113 45.5845 20.4838 46.695 26.5046 46.7779L26.5413 46.7783L26.4152 50.5608ZM20.4766 57.4451L17.8034 54.772L23.8557 48.7199L17.8035 42.6678L20.4766 39.9947L29.2016 48.7199L20.4766 57.4451ZM16.1138 38.9104H12.3312V36.3886V36.3596C12.3312 27.1537 19.794 19.6909 28.9998 19.6909C38.1955 19.6909 45.652 27.1372 45.6685 36.329V38.8523H41.8859V36.3306C41.8716 29.2246 36.1077 23.4697 28.9999 23.4697C21.8831 23.4697 16.1138 29.239 16.1138 36.3558V36.3824V36.3811L16.1138 38.9104Z"
    fill="white" />
</svg>