<svg width="35" height="42" viewBox="0 0 35 42" fill="none" xmlns="http://www.w3.org/2000/svg">
  <path
    d="M13.6314 8.21164H13.6478C15.0913 8.22869 16.4169 8.72079 17.4785 9.53848L17.4635 9.52741C18.5329 8.70784 19.8892 8.21349 21.3608 8.21173H21.3693C24.9471 8.21173 27.8474 11.112 27.8474 14.6897C27.8474 14.7219 27.8471 14.7539 27.8467 14.7859V14.781C27.77 18.4807 25.7827 21.6998 22.8343 23.4994L22.7883 23.5255C21.4071 24.4719 19.8124 25.2513 18.108 25.7818L17.9817 25.8157L17.4982 25.9489L17.0146 25.8157C15.1873 25.2513 13.5957 24.4719 12.1564 23.4862L12.2172 23.5255C9.22825 21.6966 7.24599 18.4783 7.17168 14.7917L7.17151 14.7811C7.1711 14.7539 7.17086 14.7219 7.17086 14.6898C7.17086 11.1182 10.0612 8.22173 13.6304 8.21169H13.6313L13.6314 8.21164ZM17.4927 22.1314C19.104 21.5566 24.1879 19.3759 24.1879 14.7627V14.7336C24.1881 14.7205 24.1883 14.7052 24.1883 14.6898C24.1883 13.1308 22.9269 11.8663 21.369 11.8613H21.3685C20.3749 11.8632 19.5023 12.3797 19.003 13.1585L18.9963 13.1697L17.4452 15.604L15.9105 13.1606C15.424 12.3902 14.5847 11.8812 13.6251 11.8613H13.6222C12.0717 11.8766 10.8208 13.137 10.8208 14.6897C10.8208 14.7052 10.8209 14.7206 10.8212 14.736L10.8211 14.7336V14.7628C10.8211 19.3741 15.8868 21.5548 17.5017 22.1314L17.4927 22.1314ZM5.30476 0H35V35H5.32115C4.40325 35.0191 3.66462 35.7603 3.6497 36.6774V36.6788L0 36.6606V5.29193C0.0307403 2.37856 2.38693 0.025494 5.29869 0H5.30115H5.30476ZM31.3503 3.64962H5.3175C4.40009 3.6588 3.65876 4.40009 3.64962 5.31664V31.6241C4.13888 31.4556 4.70286 31.3559 5.2893 31.3503H31.3503L31.3503 3.64962ZM34.927 41.9708H5.30111C2.39078 41.9402 0.0397575 39.5891 0.00918111 36.6817V36.6424C0.0397165 33.7321 2.39082 31.381 5.29816 31.3504H33.2665V38.3212H34.927L34.927 41.9708ZM5.3175 38.3212H29.6167V35H5.32119C4.40759 35.0189 3.67158 35.7529 3.64966 36.664V36.666C3.66589 37.578 4.40448 38.3121 5.3166 38.3211H5.3175V38.3212Z"
    fill="#1D1D1D" />
</svg>