<svg width="83" height="21" viewBox="0 0 83 21" fill="none" xmlns="http://www.w3.org/2000/svg">
  <g clip-path="url(#clip0_19_1052)">
    <path
      d="M10.6576 20.7417C10.3812 20.7499 10.1087 20.6761 9.87539 20.5297C9.64209 20.3832 9.45874 20.171 9.3492 19.9206L6.01867 13.1864L2.83102 19.8736C2.71064 20.1442 2.50957 20.3721 2.25459 20.5272C1.99962 20.6823 1.70274 20.7571 1.40359 20.7417C1.13272 20.7297 0.87001 20.6467 0.642615 20.501C0.41522 20.3553 0.231439 20.1524 0.110178 19.9132C-0.0110822 19.674 -0.0653552 19.4072 -0.0470698 19.1404C-0.0287844 18.8735 0.0613462 18.6163 0.214139 18.3954L4.04429 10.887L0.737574 3.84793C0.6086 3.61003 0.542798 3.34377 0.546495 3.07402C0.550192 2.80427 0.623182 2.53985 0.758628 2.30548C0.894073 2.0711 1.08768 1.87444 1.32112 1.73385C1.55456 1.59326 1.82031 1.51333 2.09357 1.50156C2.40084 1.47736 2.70729 1.55715 2.96243 1.72776C3.21757 1.89837 3.40609 2.1496 3.49704 2.44009L6.18521 8.68144L9.06374 2.51048C9.16624 2.20782 9.36518 1.94599 9.63103 1.76414C9.89687 1.58228 10.2153 1.49019 10.5387 1.50156C11.7519 1.50156 12.3228 2.67475 11.7043 3.84793L8.23104 10.887L11.9659 18.4189C12.0823 18.6532 12.1396 18.912 12.1328 19.1729C12.1259 19.4338 12.0552 19.6891 11.9267 19.9173C11.7982 20.1454 11.6157 20.3396 11.3947 20.4831C11.1737 20.6267 10.9208 20.7154 10.6576 20.7417Z"
      fill="#003C5A" />
    <path
      d="M14.2258 13.0223C14.2226 12.8796 14.2486 12.7378 14.3025 12.6054C14.3563 12.473 14.4369 12.3528 14.5391 12.2519C14.6414 12.1511 14.7633 12.0717 14.8975 12.0186C15.0317 11.9655 15.1756 11.9397 15.3202 11.9429H19.0787C19.2376 11.9198 19.3996 11.9308 19.5538 11.9751C19.708 12.0194 19.8507 12.0958 19.9723 12.1994C20.0938 12.3029 20.1913 12.4311 20.2582 12.5751C20.325 12.7191 20.3595 12.8756 20.3595 13.034C20.3595 13.1924 20.325 13.3489 20.2582 13.4929C20.1913 13.6369 20.0938 13.765 19.9723 13.8686C19.8507 13.9721 19.708 14.0486 19.5538 14.0928C19.3996 14.1371 19.2376 14.1481 19.0787 14.1251H15.2725C14.9865 14.1128 14.7167 13.9905 14.521 13.7844C14.3253 13.5782 14.2193 13.3046 14.2258 13.0223Z"
      fill="#003C5A" />
    <path
      d="M27.6192 19.2403C27.5721 19.6152 27.3878 19.9603 27.1008 20.2104C26.8138 20.4606 26.4439 20.5987 26.0609 20.5987C25.6779 20.5987 25.3081 20.4606 25.0211 20.2104C24.7342 19.9603 24.5498 19.6152 24.5028 19.2403V4.12972H21.2913C21.1186 4.1329 20.947 4.10172 20.7868 4.03799C20.6266 3.97427 20.481 3.87928 20.3589 3.7588C20.2367 3.63833 20.1405 3.49484 20.0759 3.33683C20.0113 3.17882 19.9796 3.00959 19.9828 2.83924C19.9795 2.66995 20.0112 2.50173 20.076 2.34495C20.1409 2.18818 20.2377 2.04612 20.3602 1.92749C20.4827 1.80886 20.6284 1.71613 20.7885 1.65503C20.9486 1.59393 21.1198 1.56576 21.2913 1.57218H30.8069C30.9765 1.569 31.1449 1.59957 31.3022 1.66212C31.4595 1.72467 31.6025 1.81786 31.7224 1.93616C31.8424 2.05445 31.9369 2.19544 32.0003 2.35061C32.0637 2.50577 32.0947 2.67198 32.0915 2.83924C32.098 3.00845 32.0694 3.17719 32.0074 3.33511C31.9455 3.49304 31.8515 3.63676 31.7313 3.75758C31.611 3.87841 31.467 3.97379 31.308 4.03778C31.1491 4.10176 30.9786 4.13303 30.8069 4.12972H27.6192V19.2403Z"
      fill="#003C5A" />
    <path
      d="M40.8934 10.9812V19.3343C40.8999 19.5189 40.8681 19.7028 40.8002 19.875C40.7322 20.0471 40.6295 20.2038 40.4981 20.3356C40.3668 20.4673 40.2098 20.5713 40.0364 20.6412C39.863 20.7111 39.677 20.7454 39.4898 20.7421C39.3005 20.7486 39.112 20.7167 38.9358 20.6483C38.7596 20.5798 38.5996 20.4764 38.4657 20.3444C38.3318 20.2123 38.227 20.0544 38.1576 19.8807C38.0882 19.7069 38.0558 19.5209 38.0625 19.3343C37.7087 19.8419 37.2316 20.2539 36.6747 20.5326C36.1178 20.8114 35.4989 20.9479 34.8747 20.9298C32.4958 20.9298 31.2112 19.3812 31.2112 16.6829C31.2112 13.9846 32.924 12.2013 36.2307 12.2013H37.9197V10.6762C37.971 10.3749 37.9521 10.0661 37.8647 9.77304C37.7773 9.47997 37.6236 9.21031 37.4152 8.98437C37.2067 8.75844 36.9489 8.58212 36.6613 8.46874C36.3737 8.35536 36.0638 8.30786 35.7549 8.32983C34.879 8.4282 34.0122 8.59291 33.1619 8.82254C33.0174 8.82889 32.8729 8.80624 32.7375 8.75602C32.6021 8.70581 32.4784 8.62908 32.3739 8.53039C32.2694 8.43171 32.1863 8.31315 32.1296 8.18189C32.0728 8.05063 32.0436 7.90935 32.0438 7.76665C32.0398 7.51186 32.1218 7.26298 32.2768 7.05912C32.4318 6.85526 32.651 6.70801 32.9001 6.64044C34.0033 6.26726 35.1596 6.06926 36.3258 6.05385C36.9746 6.01074 37.625 6.11231 38.2286 6.35108C38.8321 6.58985 39.3734 6.95967 39.8122 7.43304C40.251 7.90641 40.576 8.47122 40.7631 9.08548C40.9503 9.69974 40.9949 10.3477 40.8934 10.9812ZM37.9197 18.0203V14.055H36.8016C34.8509 14.055 34.0183 14.7823 34.0183 16.589C34.0183 18.3957 34.5893 18.9354 35.8501 18.9354C36.251 18.9381 36.6469 18.8483 37.0063 18.6731C37.3657 18.4979 37.6785 18.2422 37.9197 17.9265V18.0203Z"
      fill="#003C5A" />
    <path
      d="M45.7227 0.000288031C45.9192 -0.00609937 46.1151 0.0269835 46.2982 0.0975283C46.4814 0.168073 46.6483 0.274605 46.7884 0.410659C46.9286 0.546713 47.0392 0.709452 47.1137 0.888984C47.1881 1.06852 47.2247 1.26109 47.2214 1.45503V19.2874C47.2214 19.6795 47.0635 20.0555 46.7825 20.3327C46.5014 20.61 46.1202 20.7657 45.7227 20.7657C45.3252 20.7657 44.9441 20.61 44.663 20.3327C44.382 20.0555 44.224 19.6795 44.224 19.2874V1.45503C44.2206 1.26109 44.2574 1.06852 44.3318 0.888984C44.4063 0.709452 44.5169 0.546713 44.6571 0.410659C44.7973 0.274605 44.9639 0.168073 45.1471 0.0975283C45.3303 0.0269835 45.5261 -0.00609937 45.7227 0.000288031Z"
      fill="#003C5A" />
    <path
      d="M59.8057 19.1701C59.8017 19.386 59.7375 19.5966 59.62 19.7788C59.5025 19.9609 59.3363 20.1076 59.1397 20.2025C58.1098 20.7706 56.9407 21.0466 55.7617 21.0003C52.1933 21.0003 50.0522 18.255 50.0522 13.5154C50.0522 8.7757 52.1219 6.10083 55.3097 6.10083C58.4974 6.10083 59.9486 8.4472 59.9486 12.6237C59.9486 13.6561 59.449 14.2192 58.4499 14.2192H53.0021C53.0021 17.2226 54.1677 18.7947 56.1422 18.7947C57.0702 18.6739 57.9805 18.4455 58.8542 18.1142C58.9899 18.1132 59.1242 18.1407 59.2481 18.1951C59.3721 18.2494 59.4828 18.3292 59.573 18.4292C59.6631 18.5292 59.7304 18.6471 59.7706 18.7749C59.8107 18.9026 59.8227 19.0374 59.8057 19.1701ZM53.0021 12.4595H57.4268C57.4268 9.47958 56.737 8.28294 55.4048 8.28294C54.0726 8.28294 53.0496 9.69075 53.0021 12.4595Z"
      fill="#003C5A" />
    <path
      d="M72.9135 10.6057V19.2872C72.9167 19.4792 72.8808 19.6698 72.8078 19.8477C72.7348 20.0256 72.6263 20.1873 72.4887 20.323C72.351 20.4587 72.1873 20.5657 72.0069 20.6377C71.8265 20.7097 71.6332 20.7452 71.4386 20.742C71.2398 20.7482 71.0417 20.7154 70.8559 20.6454C70.6701 20.5754 70.5004 20.4696 70.3564 20.3342C70.2125 20.1988 70.0974 20.0365 70.0177 19.8567C69.938 19.677 69.8954 19.4834 69.8924 19.2872V10.9811C69.8924 9.2683 69.25 8.35316 67.9891 8.35316C67.5259 8.37072 67.0723 8.48927 66.661 8.70023C66.2497 8.91118 65.8909 9.20935 65.6102 9.57331V19.2872C65.6102 19.6793 65.4524 20.0553 65.1713 20.3325C64.8903 20.6098 64.5092 20.7655 64.1117 20.7655C63.7142 20.7655 63.3329 20.6098 63.0519 20.3325C62.7708 20.0553 62.6129 19.6793 62.6129 19.2872V7.5554C62.6129 7.18202 62.7633 6.82396 63.031 6.55994C63.2986 6.29592 63.6617 6.14756 64.0402 6.14756C64.4188 6.14756 64.7818 6.29592 65.0495 6.55994C65.3172 6.82396 65.4675 7.18202 65.4675 7.5554V7.93083C65.931 7.35658 66.5161 6.88898 67.1817 6.56073C67.8473 6.23247 68.5775 6.05146 69.3213 6.03027C71.5099 6.10066 72.9135 7.79008 72.9135 10.6057Z"
      fill="#003C5A" />
    <path
      d="M83 19.287C82.9938 19.5355 82.9198 19.7778 82.7859 19.9883C82.6519 20.1989 82.463 20.37 82.2389 20.4837C81.5742 20.8139 80.842 20.9904 80.0978 20.9999C79.6277 21.0213 79.1584 20.9405 78.7234 20.7633C78.2884 20.586 77.8982 20.3165 77.5804 19.974C77.2627 19.6315 77.0251 19.2243 76.8846 18.7812C76.7441 18.3381 76.7041 17.87 76.7673 17.41V8.42333H75.7682C75.6349 8.42035 75.5036 8.39109 75.382 8.33726C75.2603 8.28344 75.1508 8.2062 75.0599 8.10999C74.9691 8.01377 74.8986 7.90058 74.8528 7.77709C74.8069 7.65361 74.7865 7.52235 74.7929 7.391C74.7831 7.25887 74.801 7.12614 74.8456 7.00117C74.8902 6.87621 74.9605 6.7617 75.0521 6.66477C75.1437 6.56785 75.2545 6.49061 75.3778 6.43793C75.501 6.38524 75.6339 6.35823 75.7682 6.35859H76.7673V3.73059C76.7673 3.33855 76.9253 2.96259 77.2064 2.68537C77.4875 2.40815 77.8686 2.25244 78.266 2.25244C78.6635 2.25244 79.0448 2.40815 79.3258 2.68537C79.6069 2.96259 79.7648 3.33855 79.7648 3.73059V6.47588H82.0009C82.2785 6.47588 82.5449 6.58465 82.7412 6.77827C82.9374 6.97188 83.0477 7.23448 83.0477 7.50829C83.0477 7.7821 82.9374 8.04469 82.7412 8.2383C82.5449 8.43192 82.2785 8.54069 82.0009 8.54069H79.7648V17.5273C79.7648 18.4423 80.0503 18.7943 80.7164 18.7943C81.3825 18.7943 81.668 18.4424 82.0962 18.4424C82.3279 18.4421 82.5509 18.5295 82.7191 18.6867C82.8873 18.8439 82.9878 19.0588 83 19.287Z"
      fill="#003C5A" />
  </g>
  <defs>
    <clipPath id="clip0_19_1052">
      <rect width="83" height="21" fill="white" />
    </clipPath>
  </defs>
</svg>