<svg width="52" height="30" viewBox="0 0 52 30" fill="none" xmlns="http://www.w3.org/2000/svg">
  <path
    d="M39.1746 16.4878C41.6359 16.4878 43.6312 14.4925 43.6312 12.0313C43.6312 9.56997 41.6359 7.57471 39.1746 7.57471C36.7133 7.57471 34.7181 9.56997 34.7181 12.0313C34.7181 14.4925 36.7133 16.4878 39.1746 16.4878Z"
    fill="#003C5A" />
  <path
    d="M39.2475 0C35.9555 0 32.9694 1.32445 30.7968 3.46929L30.5743 3.69177C29.6183 4.65122 29.6183 6.2051 30.5778 7.16454C31.5372 8.12399 33.0946 8.12399 34.054 7.16107L34.2591 6.9525C35.6983 5.53766 37.638 4.80765 39.6681 4.92584C43.2348 5.13094 46.134 8.02318 46.3495 11.5898C46.5998 15.7161 43.3147 19.1506 39.244 19.1506C37.3669 19.1506 35.5975 18.4241 34.2556 17.1101L20.4827 3.46929C18.3101 1.32445 15.3275 0 12.032 0C5.21506 0 -0.280883 5.66976 0.0111216 12.5527C0.268364 18.6709 5.17335 23.6698 11.2846 24.0417C11.8408 24.0765 12.39 24.0695 12.9254 24.0313C14.3889 23.9235 15.463 22.6165 15.2162 21.1703C15.0007 19.9119 13.8709 19.0255 12.6299 19.1298C12.4317 19.1472 12.2336 19.1541 12.032 19.1541C7.9613 19.1541 4.67624 15.7161 4.92653 11.5933C5.14206 8.02666 8.04125 5.13789 11.6079 4.92932C13.6415 4.81113 15.5778 5.54114 17.0169 6.95597L30.7968 20.6002C33.0633 22.8389 36.2128 24.1808 39.6786 24.0626C46.0436 23.8401 51.1849 18.591 51.2788 12.2225C51.3796 5.48552 45.9532 0 39.2475 0Z"
    fill="#003C5A" />
  <path
    d="M25.6415 21.0904C25.047 21.0904 24.4839 21.2085 23.9659 21.4171L16.2243 13.6755C16.4259 13.168 16.5372 12.6118 16.5372 12.0313C16.5372 9.57007 14.5418 7.57471 12.0806 7.57471C9.61945 7.57471 7.62408 9.57007 7.62408 12.0313C7.62408 14.4924 9.61945 16.4878 12.0806 16.4878C12.6612 16.4878 13.2139 16.3766 13.7214 16.1749L21.4839 23.9374C21.2892 24.4345 21.1849 24.9768 21.1849 25.5434C21.1849 28.0046 23.1803 30 25.6415 30C28.1027 30 30.098 28.0046 30.098 25.5434C30.098 23.0857 28.1027 21.0904 25.6415 21.0904ZM27.0007 25.5469C27.0007 25.5504 27.0007 25.5504 27.0007 25.5539C26.9972 26.3012 26.3889 26.9061 25.6415 26.9061C25.638 26.9061 25.638 26.9061 25.6345 26.9061C24.8871 26.9026 24.2823 26.2943 24.2823 25.5469C24.2823 25.4635 24.2927 25.3835 24.3066 25.307C24.3101 25.2862 24.3135 25.2653 24.3205 25.2445C24.3379 25.1715 24.3587 25.0985 24.3865 25.0324C24.3935 25.015 24.4039 24.9977 24.4109 24.9803C24.4248 24.949 24.4387 24.9177 24.4561 24.8864C24.4595 24.8829 24.463 24.8795 24.4665 24.8795C24.5812 24.6778 24.7481 24.5075 24.9462 24.3893C24.9462 24.3858 24.9497 24.3858 24.9532 24.3824C24.9914 24.3615 25.0297 24.3406 25.0679 24.3233C25.0957 24.3094 25.127 24.2989 25.1548 24.285C25.2104 24.2642 25.2695 24.2468 25.3286 24.2294C25.3529 24.2224 25.3738 24.219 25.3981 24.2155C25.4746 24.2016 25.5546 24.1912 25.638 24.1912C26.3923 24.1877 27.0007 24.796 27.0007 25.5469Z"
    fill="#003C5A" />
</svg>