<svg width="151" height="30" viewBox="0 0 151 30" fill="none" xmlns="http://www.w3.org/2000/svg">
<g clip-path="url(#clip0_6_18)">
<path d="M74.6777 23.754C74.3889 23.7619 74.1041 23.6915 73.8603 23.552C73.6165 23.4126 73.4249 23.2105 73.3104 22.972L69.8298 16.5585L66.4985 22.9272C66.3727 23.1849 66.1625 23.402 65.8961 23.5497C65.6296 23.6974 65.3194 23.7687 65.0067 23.754C64.7237 23.7426 64.4491 23.6635 64.2115 23.5248C63.9738 23.386 63.7818 23.1928 63.655 22.9649C63.5283 22.7371 63.4716 22.483 63.4907 22.2289C63.5098 21.9748 63.604 21.7298 63.7637 21.5194L67.7664 14.3686L64.3107 7.66469C64.1759 7.43812 64.1071 7.18454 64.111 6.92764C64.1149 6.67073 64.1912 6.4189 64.3327 6.19569C64.4743 5.97248 64.6766 5.78518 64.9205 5.65128C65.1645 5.51739 65.4422 5.44126 65.7278 5.43006C66.0489 5.40701 66.3692 5.483 66.6358 5.64549C66.9025 5.80797 67.0995 6.04724 67.1945 6.3239L70.0038 12.268L73.0121 6.39094C73.1192 6.10269 73.3271 5.85333 73.6049 5.68013C73.8828 5.50694 74.2156 5.41923 74.5535 5.43006C75.8214 5.43006 76.418 6.54738 75.7716 7.66469L72.1419 14.3686L76.0451 21.5418C76.1667 21.765 76.2265 22.0114 76.2194 22.2599C76.2123 22.5084 76.1384 22.7516 76.0041 22.9688C75.8698 23.1861 75.6791 23.371 75.4481 23.5077C75.2172 23.6444 74.9529 23.729 74.6777 23.754V23.754Z" fill="#003C5A"/>
<path d="M78.4068 16.4022C78.4034 16.2663 78.4307 16.1313 78.4869 16.0052C78.5432 15.8791 78.6274 15.7646 78.7343 15.6685C78.8412 15.5724 78.9685 15.4968 79.1088 15.4463C79.2491 15.3957 79.3994 15.3711 79.5505 15.3742H83.4784C83.6445 15.3522 83.8138 15.3627 83.9749 15.4049C84.1361 15.447 84.2852 15.5198 84.4122 15.6184C84.5392 15.717 84.6412 15.8391 84.711 15.9763C84.7809 16.1134 84.8169 16.2625 84.8169 16.4133C84.8169 16.5642 84.7809 16.7132 84.711 16.8504C84.6412 16.9876 84.5392 17.1096 84.4122 17.2082C84.2852 17.3068 84.1361 17.3796 83.9749 17.4217C83.8138 17.4639 83.6445 17.4744 83.4784 17.4524H79.5007C79.2018 17.4408 78.9198 17.3243 78.7153 17.128C78.5108 16.9316 78.4 16.671 78.4068 16.4022V16.4022Z" fill="#003C5A"/>
<path d="M92.4038 22.3241C92.3546 22.6812 92.162 23.0098 91.8621 23.248C91.5621 23.4863 91.1756 23.6178 90.7753 23.6178C90.375 23.6178 89.9886 23.4863 89.6887 23.248C89.3888 23.0098 89.1961 22.6812 89.147 22.3241V7.93306H85.7908C85.6103 7.9361 85.4309 7.9064 85.2635 7.84571C85.0961 7.78501 84.944 7.69455 84.8163 7.57981C84.6887 7.46507 84.5881 7.32842 84.5206 7.17793C84.453 7.02745 84.4199 6.86628 84.4233 6.70404C84.4198 6.54281 84.4529 6.3826 84.5207 6.23329C84.5885 6.08398 84.6897 5.94869 84.8177 5.83571C84.9457 5.72272 85.098 5.63441 85.2653 5.57622C85.4326 5.51803 85.6115 5.4912 85.7908 5.49732H95.7352C95.9124 5.49428 96.0884 5.5234 96.2528 5.58297C96.4172 5.64254 96.5666 5.73129 96.6919 5.84396C96.8173 5.95662 96.9161 6.0909 96.9824 6.23867C97.0486 6.38645 97.081 6.54474 97.0777 6.70404C97.0845 6.86519 97.0545 7.02589 96.9898 7.1763C96.9251 7.3267 96.8269 7.46358 96.7012 7.57865C96.5755 7.69373 96.425 7.78456 96.2589 7.8455C96.0928 7.90644 95.9146 7.93622 95.7352 7.93306H92.4038V22.3241Z" fill="#003C5A"/>
<path d="M106.276 14.4583V22.4136C106.283 22.5894 106.25 22.7646 106.179 22.9286C106.108 23.0925 106 23.2418 105.863 23.3672C105.726 23.4926 105.562 23.5917 105.38 23.6583C105.199 23.7248 105.005 23.7575 104.809 23.7543C104.611 23.7606 104.414 23.7302 104.23 23.665C104.046 23.5998 103.879 23.5014 103.739 23.3756C103.599 23.2498 103.489 23.0994 103.417 22.934C103.344 22.7685 103.311 22.5914 103.318 22.4136C102.948 22.8971 102.449 23.2894 101.867 23.5549C101.285 23.8203 100.638 23.9504 99.9861 23.9332C97.5 23.9332 96.1576 22.4583 96.1576 19.8885C96.1576 17.3186 97.9475 15.6203 101.403 15.6203H103.168V14.1678C103.222 13.8809 103.202 13.5868 103.111 13.3077C103.02 13.0285 102.859 12.7717 102.641 12.5565C102.423 12.3414 102.154 12.1735 101.853 12.0655C101.553 11.9575 101.229 11.9122 100.906 11.9332C99.9906 12.0269 99.0847 12.1837 98.1962 12.4024C98.0451 12.4085 97.8942 12.3869 97.7527 12.3391C97.6111 12.2912 97.4819 12.2182 97.3727 12.1242C97.2635 12.0302 97.1766 11.9173 97.1173 11.7923C97.058 11.6673 97.0275 11.5327 97.0276 11.3968C97.0235 11.1541 97.1092 10.9171 97.2712 10.723C97.4332 10.5288 97.6623 10.3886 97.9226 10.3242C99.0755 9.96882 100.284 9.78025 101.503 9.76557C102.181 9.72452 102.86 9.82125 103.491 10.0486C104.122 10.276 104.688 10.6283 105.146 11.0791C105.605 11.5299 105.944 12.0678 106.14 12.6528C106.336 13.2378 106.382 13.855 106.276 14.4583ZM103.168 21.1622V17.3857H102C99.9613 17.3857 99.0912 18.0784 99.0912 19.7991C99.0912 21.5197 99.6879 22.0337 101.006 22.0337C101.424 22.0363 101.838 21.9508 102.214 21.7839C102.589 21.6171 102.916 21.3736 103.168 21.0728V21.1622Z" fill="#003C5A"/>
<path d="M111.323 4.00025C111.528 3.99417 111.733 4.02568 111.924 4.09286C112.116 4.16005 112.29 4.26151 112.437 4.39108C112.583 4.52066 112.699 4.67565 112.777 4.84663C112.854 5.01761 112.893 5.20101 112.889 5.38572V22.369C112.889 22.7423 112.724 23.1005 112.43 23.3645C112.137 23.6285 111.738 23.7768 111.323 23.7768C110.907 23.7768 110.509 23.6285 110.215 23.3645C109.922 23.1005 109.757 22.7423 109.757 22.369V5.38572C109.753 5.20101 109.792 5.01761 109.869 4.84663C109.947 4.67565 110.063 4.52066 110.209 4.39108C110.356 4.26151 110.53 4.16005 110.721 4.09286C110.913 4.02568 111.117 3.99417 111.323 4.00025Z" fill="#003C5A"/>
<path d="M126.041 22.2573C126.037 22.4629 125.969 22.6634 125.847 22.8369C125.724 23.0104 125.55 23.1501 125.345 23.2405C124.268 23.7815 123.047 24.0444 121.814 24.0003C118.085 24.0003 115.848 21.3857 115.848 16.8718C115.848 12.3578 118.011 9.81031 121.342 9.81031C124.673 9.81031 126.19 12.0449 126.19 16.0226C126.19 17.0058 125.668 17.5421 124.624 17.5421H118.93C118.93 20.4025 120.149 21.8997 122.212 21.8997C123.182 21.7847 124.133 21.5671 125.046 21.2516C125.188 21.2506 125.328 21.2769 125.458 21.3286C125.588 21.3804 125.703 21.4564 125.797 21.5516C125.892 21.6469 125.962 21.7591 126.004 21.8808C126.046 22.0025 126.058 22.1308 126.041 22.2573V22.2573ZM118.93 15.8662H123.555C123.555 13.0282 122.834 11.8885 121.441 11.8885C120.049 11.8885 118.98 13.2293 118.93 15.8662Z" fill="#003C5A"/>
<path d="M139.739 14.1007V22.3688C139.743 22.5516 139.705 22.7331 139.629 22.9026C139.553 23.072 139.439 23.226 139.295 23.3553C139.151 23.4845 138.98 23.5864 138.792 23.655C138.603 23.7235 138.401 23.7573 138.198 23.7543C137.99 23.7602 137.783 23.729 137.589 23.6623C137.395 23.5956 137.217 23.4948 137.067 23.3659C136.917 23.2369 136.796 23.0823 136.713 22.9112C136.63 22.74 136.585 22.5556 136.582 22.3688V14.4582C136.582 12.827 135.911 11.9554 134.593 11.9554C134.109 11.9721 133.635 12.085 133.205 12.2859C132.775 12.4868 132.4 12.7708 132.107 13.1174V22.3688C132.107 22.7422 131.942 23.1003 131.648 23.3643C131.354 23.6283 130.956 23.7766 130.541 23.7766C130.125 23.7766 129.727 23.6283 129.433 23.3643C129.139 23.1003 128.975 22.7422 128.975 22.3688V11.1956C128.975 10.84 129.132 10.499 129.411 10.2476C129.691 9.99612 130.071 9.85482 130.466 9.85482C130.862 9.85482 131.241 9.99612 131.521 10.2476C131.801 10.499 131.958 10.84 131.958 11.1956V11.5532C132.442 11.0063 133.054 10.5609 133.749 10.2483C134.445 9.93568 135.208 9.76329 135.985 9.74312C138.272 9.81016 139.739 11.4191 139.739 14.1007Z" fill="#003C5A"/>
<path d="M150.28 22.3686C150.274 22.6053 150.196 22.836 150.056 23.0365C149.916 23.237 149.719 23.4 149.485 23.5083C148.79 23.8227 148.025 23.9909 147.247 23.9999C146.756 24.0203 146.265 23.9434 145.811 23.7745C145.356 23.6057 144.948 23.3491 144.616 23.0229C144.284 22.6967 144.036 22.3089 143.889 21.8869C143.742 21.4649 143.7 21.0191 143.767 20.5809V12.0222H142.722C142.583 12.0194 142.446 11.9915 142.319 11.9403C142.192 11.889 142.077 11.8154 141.982 11.7238C141.887 11.6322 141.814 11.5244 141.766 11.4068C141.718 11.2892 141.697 11.1641 141.703 11.039C141.693 10.9132 141.712 10.7868 141.758 10.6678C141.805 10.5488 141.878 10.4397 141.974 10.3474C142.07 10.2551 142.186 10.1815 142.314 10.1314C142.443 10.0812 142.582 10.0555 142.722 10.0558H143.767V7.55295C143.767 7.17957 143.932 6.82151 144.225 6.55749C144.519 6.29348 144.917 6.14518 145.333 6.14518C145.748 6.14518 146.147 6.29348 146.44 6.55749C146.734 6.82151 146.899 7.17957 146.899 7.55295V10.1675H149.236C149.526 10.1675 149.804 10.2711 150.01 10.4555C150.215 10.6399 150.33 10.89 150.33 11.1507C150.33 11.4115 150.215 11.6616 150.01 11.846C149.804 12.0304 149.526 12.134 149.236 12.134H146.899V20.6926C146.899 21.5641 147.198 21.8993 147.894 21.8993C148.59 21.8993 148.888 21.5642 149.336 21.5642C149.578 21.5639 149.811 21.6471 149.987 21.7968C150.162 21.9466 150.267 22.1512 150.28 22.3686Z" fill="#003C5A"/>
</g>
<path d="M41.8876 16.4878C44.5017 16.4878 46.6209 14.4925 46.6209 12.0313C46.6209 9.56997 44.5017 7.57471 41.8876 7.57471C39.2735 7.57471 37.1543 9.56997 37.1543 12.0313C37.1543 14.4925 39.2735 16.4878 41.8876 16.4878Z" fill="#003C5A"/>
<path d="M41.9651 0C38.4686 0 35.2971 1.32445 32.9895 3.46929L32.7532 3.69177C31.7379 4.65122 31.7379 6.2051 32.7569 7.16454C33.7759 8.12399 35.43 8.12399 36.449 7.16107L36.6669 6.9525C38.1954 5.53766 40.2556 4.80765 42.4118 4.92584C46.2 5.13094 49.2792 8.02318 49.5081 11.5898C49.7739 15.7161 46.2849 19.1506 41.9614 19.1506C39.9676 19.1506 38.0883 18.4241 36.6632 17.1101L22.035 3.46929C19.7274 1.32445 16.5595 0 13.0594 0C5.81911 0 -0.0181448 5.66976 0.291994 12.5527C0.565212 18.6709 5.77481 23.6698 12.2656 24.0417C12.8563 24.0765 13.4397 24.0695 14.0083 24.0313C15.5626 23.9235 16.7035 22.6165 16.4414 21.1703C16.2125 19.9119 15.0125 19.0255 13.6944 19.1298C13.484 19.1472 13.2735 19.1541 13.0594 19.1541C8.7359 19.1541 5.24683 15.7161 5.51267 11.5933C5.74158 8.02666 8.82082 5.13789 12.6089 4.92932C14.7688 4.81113 16.8254 5.54114 18.3539 6.95597L32.9895 20.6002C35.3968 22.8389 38.7418 24.1808 42.4229 24.0626C49.1832 23.8401 54.6439 18.591 54.7435 12.2225C54.8506 5.48552 49.0872 0 41.9651 0Z" fill="#003C5A"/>
<path d="M27.514 21.0904C26.8826 21.0904 26.2845 21.2085 25.7344 21.4171L17.512 13.6755C17.7262 13.168 17.8443 12.6118 17.8443 12.0313C17.8443 9.57007 15.725 7.57471 13.111 7.57471C10.497 7.57471 8.37769 9.57007 8.37769 12.0313C8.37769 14.4924 10.497 16.4878 13.111 16.4878C13.7276 16.4878 14.3146 16.3766 14.8537 16.1749L23.0982 23.9374C22.8915 24.4345 22.7807 24.9768 22.7807 25.5434C22.7807 28.0046 24.9 30 27.514 30C30.128 30 32.2473 28.0046 32.2473 25.5434C32.2473 23.0857 30.128 21.0904 27.514 21.0904ZM28.9576 25.5469C28.9576 25.5504 28.9576 25.5504 28.9576 25.5539C28.9539 26.3012 28.3078 26.9061 27.514 26.9061C27.5103 26.9061 27.5103 26.9061 27.5066 26.9061C26.7128 26.9026 26.0704 26.2943 26.0704 25.5469C26.0704 25.4635 26.0815 25.3835 26.0962 25.307C26.0999 25.2862 26.1036 25.2653 26.111 25.2445C26.1295 25.1715 26.1516 25.0985 26.1811 25.0324C26.1885 25.015 26.1996 24.9977 26.207 24.9803C26.2218 24.949 26.2365 24.9177 26.255 24.8864C26.2587 24.8829 26.2624 24.8795 26.2661 24.8795C26.3879 24.6778 26.5651 24.5075 26.7756 24.3893C26.7756 24.3858 26.7793 24.3858 26.783 24.3824C26.8236 24.3615 26.8642 24.3406 26.9048 24.3233C26.9343 24.3094 26.9676 24.2989 26.9971 24.285C27.0562 24.2642 27.1189 24.2468 27.1817 24.2294C27.2076 24.2224 27.2297 24.219 27.2556 24.2155C27.3368 24.2016 27.4217 24.1912 27.5103 24.1912C28.3115 24.1877 28.9576 24.796 28.9576 25.5469Z" fill="#003C5A"/>
<defs>
<clipPath id="clip0_6_18">
<rect width="86.7403" height="20" fill="white" transform="translate(63.5399 4)"/>
</clipPath>
</defs>
</svg>
