<svg width="58" height="57" viewBox="0 0 58 57" fill="none" xmlns="http://www.w3.org/2000/svg">
  <path
    d="M26.6044 12.0541H45.8451C52.5552 12.0613 57.9928 17.4988 58 24.2081V56.7897L47.2196 45.9714H26.5782C19.8793 45.9714 14.4487 40.5409 14.4487 33.8419C14.4487 33.7923 14.4489 33.7426 14.4496 33.6932V33.7007V24.2089C14.4567 17.4989 19.8943 12.0612 26.6036 12.054H26.6043L26.6044 12.0541ZM52.9566 44.5845V24.2089C52.9522 20.2831 49.7709 17.1019 45.8457 17.0976H26.6044C22.6786 17.1019 19.4973 20.2831 19.4931 24.2085V33.7537C19.4925 33.7845 19.4922 33.8208 19.4922 33.8572C19.4922 34.4791 19.5735 35.082 19.7259 35.6559L19.7149 35.6071C20.5275 38.6908 23.2913 40.9279 26.5776 40.9279H49.315L52.9566 44.5845ZM12.1547 0.00016639H31.5544C38.1987 0.0898428 43.5505 5.49688 43.5505 12.1539V17.1984H26.6043C22.6786 17.2027 19.4973 20.384 19.493 24.3093V34.0436H10.7678L0 44.6602V12.1548C0.00720961 5.44492 5.44475 0.00720961 12.1541 0H12.1548L12.1547 0.00016639ZM31.504 5.04357H12.1547C8.229 5.048 5.04773 8.22921 5.04346 12.1545V32.6063L8.70006 29.0002H14.4496V24.3097C14.4568 17.5998 19.8944 12.1621 26.6037 12.1548H38.507C38.4921 8.27131 35.3787 5.11982 31.5113 5.04373L31.5041 5.04362L31.504 5.04357Z"
    fill="white" />
</svg>