<svg width="58" height="49" viewBox="0 0 58 49" fill="none" xmlns="http://www.w3.org/2000/svg">
  <path
    d="M17.0535 48.673C11.4545 48.673 7.24398 42.0092 4.70607 36.4218C2.11204 31.039 0.421727 24.7925 0.00733711 18.2359L0 18.0907V7.48607C0.0115297 3.52595 3.43387 0.293944 7.74343 0.0773587L7.76465 0.0765034C8.46115 0.0277503 9.27295 0 10.0918 0C11.891 0 13.6556 0.134 15.3741 0.391545L15.1872 0.368357C17.9363 0.566505 20.2777 1.98419 21.5728 4.01833L21.5936 4.05373C22.0438 5.10396 22.3048 6.31956 22.3048 7.59047C22.3048 9.77889 21.531 11.8035 20.218 13.4517L20.2403 13.4222C19.0068 15.2853 17.2181 16.7456 15.081 17.637L15.0085 17.6641C16.1661 20.5809 17.6157 23.1053 19.3814 25.416L19.3021 25.3062C19.957 23.5382 20.9866 22.0224 22.3146 20.7685L22.3104 20.7725L22.406 20.6812L22.5117 20.6014C24.412 19.161 26.5402 17.8515 28.8062 16.7442L29.0086 16.6537C29.8275 10.0122 35.9856 4.89546 43.4618 4.89546C51.491 4.89546 58 10.7971 58 18.0771C58 24.1937 53.4052 29.3372 47.1745 30.8251L47.0732 30.8456C41.8012 37.847 31.3402 48.6728 17.0535 48.6728L17.0535 48.673ZM10.2824 4.56697C9.60082 4.56697 8.85379 4.58517 8.01867 4.62399C6.34807 4.71332 5.03053 5.96351 5.03053 7.49277V18.0907C5.46222 24.1619 7.01103 29.8057 9.49343 34.9971L9.35429 34.6703C12.3022 41.1608 15.4111 44.1118 17.0535 44.1118C29.5242 44.1118 38.9364 33.7376 43.4638 27.5527L44.06 26.734L45.1265 26.5629C49.6142 25.8207 52.9715 22.3034 52.9715 18.0753C52.9715 13.3143 48.7148 9.45477 43.4638 9.45477C38.2129 9.45477 33.9561 13.3142 33.9561 18.0753V18.0867V18.0861V19.5229L32.53 20.1454C29.9815 21.2692 27.7851 22.5612 25.7869 24.0625L25.8419 24.0223C21.8603 27.8993 24.1039 34.7546 24.129 34.8253L19.3324 36.1937C18.908 34.9238 18.609 33.4462 18.496 31.9222L18.4923 31.8605C16.3792 29.6262 14.4701 27.1263 12.8604 24.457L12.7348 24.2298C11.1157 21.8506 10.004 19.035 9.61822 16.0189L9.60836 15.924V13.6434H12.1236C13.8273 13.3437 15.224 12.3573 15.9704 11.0215L15.9845 10.9933C16.7832 10.0333 17.2638 8.82022 17.2638 7.50541C17.2638 6.97383 17.1852 6.45888 17.038 5.96954L17.0485 6.01041L17.0334 5.98071C17.0007 5.91457 16.2436 4.56678 10.2824 4.56678V4.56697Z"
    fill="white" />
</svg>