<svg width="44" height="44" viewBox="0 0 44 44" fill="none" xmlns="http://www.w3.org/2000/svg">
  <path
    d="M10.7807 43.979V41.0445H25.5708C27.7397 41.0435 29.7028 40.1629 31.1228 38.74L40.3413 29.5215C40.7886 29.0758 41.0653 28.4592 41.0653 27.778C41.0653 27.7664 41.0653 27.7549 41.0651 27.7434V27.7451V27.6982C41.0653 27.6866 41.0654 27.6729 41.0654 27.6591C41.0654 26.3085 39.9705 25.2137 38.6199 25.2137C37.9226 25.2137 37.2935 25.5054 36.848 25.9736L36.8471 25.9746L26.314 36.5077H23.9273V33.5732H23.9488C25.1873 33.5678 26.1892 32.5626 26.1892 31.3233C26.1892 31.1991 26.1791 31.0771 26.1598 30.9583L26.1615 30.9712C25.9102 29.866 24.936 29.0534 23.772 29.0534C23.7544 29.0534 23.7368 29.0536 23.7192 29.054H23.7219H16.0335L13.9068 28.0015C12.9117 27.4963 11.7371 27.2003 10.4933 27.2003C8.67289 27.2003 7.00057 27.8342 5.68506 28.8933L5.69988 28.8817C4.00686 30.2664 2.93474 32.3554 2.93474 34.6949C2.93474 34.7338 2.93504 34.7727 2.9356 34.8115V34.8057V35.0385H0.00098781V34.8429C0.000429483 34.7992 0 34.7476 0 34.696C0 31.4431 1.49181 28.5385 3.82858 26.6292L3.84722 26.6144C5.64727 25.163 7.96227 24.2846 10.4824 24.2846C12.199 24.2846 13.8203 24.6922 15.255 25.4156L15.1942 25.3878L16.7025 26.1332H23.6613C23.6894 26.1327 23.7226 26.1323 23.7559 26.1323C26.1178 26.1323 28.1246 27.6534 28.85 29.7694L28.8613 29.8072L34.7324 23.9459C35.7136 22.9216 37.0924 22.285 38.62 22.285C41.5913 22.285 44 24.6937 44 27.665C44 27.685 43.9999 27.705 43.9997 27.7248V27.7218C43.9999 27.7368 44 27.7547 44 27.7726C44 29.2673 43.3935 30.6204 42.4132 31.5992L33.2005 40.8098C31.2485 42.7649 28.5513 43.9755 25.5714 43.9791H25.5707L10.7807 43.979ZM23.8296 36.5057H14.5172V33.5713H23.8296L23.8296 36.5057ZM7.45483 0H12.6392C18.6008 0.00669993 23.4317 4.83761 23.4384 10.7985V12.2665H18.2345C12.2827 12.2453 7.46488 7.42061 7.45488 1.46823V1.46724L7.45483 0ZM20.3668 9.3318C19.6467 5.66707 16.4622 2.93968 12.6398 2.93453H10.5263C11.2467 6.59273 14.4213 9.31634 18.2346 9.33185H18.2364L20.3668 9.3318ZM25.7077 14.125H20.5038V12.6577C20.5105 6.69615 25.3414 1.8652 31.3023 1.85854H36.5069V3.32579C36.5002 9.28735 31.6692 14.1183 25.7084 14.125H25.7077ZM23.5753 11.1904H25.7077C29.5307 11.1852 32.7152 8.45794 33.4271 4.84306L33.4353 4.79307H31.3029C27.4799 4.79823 24.2954 7.52553 23.5835 11.1404L23.5753 11.1904ZM23.4383 27.5847H20.5038V10.7992H23.4383V27.5847Z"
    fill="#1D1D1D" />
</svg>