<svg width="44" height="44" viewBox="0 0 44 44" fill="none" xmlns="http://www.w3.org/2000/svg">
  <path
    d="M44 43.3108H0L10.146 31.1461L21.9868 16.9025L33.8295 31.1481L44 43.3108ZM8.05204 39.5446H35.9404L30.9352 33.5583L21.9868 22.7852L13.0403 33.5545L8.05204 39.5446ZM20.1038 0H34.6599V12.7484H20.1037L20.1038 0ZM30.8938 3.76613H23.8699V8.98221H30.8937L30.8938 3.76613ZM23.8699 19.8664H20.1038V9.07636H23.8699V19.8664ZM25.4667 36.7803L21.9868 33.3004L20.3166 34.9706L13.8011 29.732L16.1625 26.7982L20.0435 29.9203L21.9868 27.9752L25.7002 31.6886L29.3138 28.6756L31.7222 31.5699L25.4667 36.7803Z"
    fill="#1D1D1D" />
</svg>