<svg width="44" height="44" viewBox="0 0 44 44" fill="none" xmlns="http://www.w3.org/2000/svg">
  <path
    d="M35.8173 43.6129H20.7902C17.7342 43.5907 14.8541 42.8576 12.2998 41.5708L12.4103 41.6213H12.3929C10.3003 40.527 7.82696 39.8734 5.20384 39.8448L5.19462 39.8447H0V36.9385H5.22174C8.32609 36.9718 11.2435 37.7416 13.818 39.0812L13.7119 39.0309C15.7808 40.0765 18.2187 40.6969 20.7993 40.7164H35.7998C35.8058 40.7165 35.8127 40.7166 35.8197 40.7166C36.8958 40.7166 37.7953 39.9589 38.0154 38.9469L38.0182 38.9321L41.0313 23.8549C41.0714 23.6476 41.0965 23.407 41.1009 23.1613V23.1574C41.0282 21.2486 39.4815 19.7249 37.5725 19.6933L37.5695 19.6932H23.0878L24.809 17.3683C26.8436 14.621 30.0734 9.34728 30.0734 6.87897V6.85959C30.0736 6.84417 30.0737 6.82603 30.0737 6.80789C30.0737 5.72708 29.6434 4.74696 28.9451 4.03006L28.9458 4.03091C28.2473 3.33816 27.286 2.91016 26.225 2.91016C26.1957 2.91016 26.1664 2.9105 26.1372 2.91114L26.1416 2.91105H26.1088C24.7741 2.91216 23.6924 3.99577 23.6913 5.33281V5.3329C23.6827 6.80503 23.0834 8.1353 22.1191 9.09919L22.119 9.09927L9.90783 23.2427H0V20.3365H8.5811L20.0535 7.06697C20.5048 6.62726 20.7861 6.0144 20.7902 5.33562V5.3349V5.33298C20.7902 2.39578 23.1611 0.0132886 26.0902 0.00119256H26.0913C26.13 0.000425911 26.1755 0 26.2212 0C28.0866 0 29.7761 0.754638 31.0021 1.97583L31.0114 1.9852C32.2257 3.22836 32.9748 4.9316 32.9748 6.81014C32.9748 6.83851 32.9747 6.86679 32.9744 6.89511V6.89086C32.9744 9.80864 30.4853 14.1175 28.7448 16.7718H37.6005C41.0805 16.8196 43.8958 19.6047 43.9998 23.0724L44 23.0821V23.1421C43.9949 23.5838 43.9509 24.0118 43.871 24.4271L43.8782 24.3821V24.3995L40.8593 39.5116C40.351 41.8698 38.2875 43.6113 35.8176 43.6131H35.8173L35.8173 43.6129Z"
    fill="#1D1D1D" />
</svg>