<svg width="46" height="46" viewBox="0 0 46 46" fill="none" xmlns="http://www.w3.org/2000/svg">
  <path
    d="M23 1.00004C25.662 1.00004 27.82 3.15799 27.82 5.82008C27.82 8.48217 25.6619 10.64 23 10.64C20.338 10.64 18.1799 8.48204 18.1799 5.82004C18.1834 3.15941 20.3393 1.00344 22.9996 1H23L23 1.00004ZM23 8.64003C24.5575 8.64003 25.82 7.37749 25.82 5.82004C25.82 4.26258 24.5575 3.00005 23 3.00005C21.4425 3.00005 20.18 4.26258 20.18 5.82004C20.1823 7.37655 21.4435 8.63771 22.9998 8.64003H23ZM29.7199 15.36H27.72C27.72 12.7532 25.6067 10.64 23 10.64C20.3933 10.64 18.28 12.7532 18.28 15.3601H16.28C16.28 11.6487 19.2886 8.64007 23 8.64007C26.7114 8.64007 29.7199 11.6487 29.7199 15.36ZM38.28 23.9C40.942 23.9 43.1 26.058 43.1 28.72C43.1 31.3821 40.942 33.54 38.28 33.54C35.618 33.54 33.4599 31.382 33.4599 28.72C33.4634 26.0594 35.6193 23.9034 38.2796 23.9H38.28ZM38.28 31.54C39.8374 31.54 41.1 30.2775 41.1 28.7201C41.1 27.1626 39.8374 25.9001 38.28 25.9001C36.7225 25.9001 35.46 27.1626 35.46 28.7201C35.4623 30.2766 36.7235 31.5378 38.2798 31.5401L38.28 31.54ZM31.54 38.284C31.54 34.5672 34.5531 31.5541 38.27 31.5541C41.9869 31.5541 45 34.5672 45 38.284H43C43 35.6717 40.8823 33.5541 38.27 33.5541C35.6577 33.5541 33.54 35.6718 33.54 38.2841L31.54 38.284ZM7.72003 23.9C10.382 23.9 12.54 26.058 12.54 28.72C12.54 31.382 10.382 33.5401 7.71994 33.5401C5.05799 33.5401 2.89999 31.382 2.89999 28.72C2.90343 26.0594 5.05936 23.9034 7.7196 23.9H7.72003ZM7.72003 31.5401C9.27744 31.5401 10.54 30.2776 10.54 28.7201C10.54 27.1627 9.27748 25.9001 7.72003 25.9001C6.16258 25.9001 4.90004 27.1627 4.90004 28.7201C4.90232 30.2766 6.16352 31.5378 7.71986 31.5401L7.72003 31.5401ZM14.46 38.284H12.46C12.46 35.6717 10.3423 33.5541 7.73 33.5541C5.11768 33.5541 3 35.6717 3 38.284H1C1 34.5672 4.01314 31.5541 7.73 31.5541C11.4469 31.5541 14.46 34.5672 14.46 38.284ZM4.93799 21.8L2.93799 21.6681C3.41651 14.6651 7.42236 8.69435 13.1765 5.47612L13.278 5.42395L14.244 7.17597C8.96361 10.1101 5.35312 15.4912 4.94083 21.746L4.93795 21.8L4.93799 21.8ZM41.062 21.8C40.6494 15.4893 37.0391 10.1057 31.8495 7.21684L31.758 7.16999L32.724 5.41802C38.5796 8.69023 42.5844 14.6634 43.0566 21.6063L43.06 21.668L41.062 21.8ZM23 45C20.2584 44.9978 17.6466 44.4451 15.268 43.4468L15.3999 43.496L16.158 41.646C18.18 42.5026 20.5314 43.0003 22.999 43.0003C25.4667 43.0003 27.818 42.5026 29.9582 41.6019L29.84 41.6461L30.598 43.4961C28.3521 44.4451 25.7409 44.9976 23.001 45.0001H23L23 45Z"
    fill="#1D1D1D" stroke="#1D1D1D" />
</svg>