<svg width="44" height="45" viewBox="0 0 44 45" fill="none" xmlns="http://www.w3.org/2000/svg">
  <path
    d="M22 29.8614C24.8728 29.8614 27.2018 32.1903 27.2018 35.0632C27.2018 37.936 24.8728 40.2649 22 40.2649C19.1272 40.2649 16.7982 37.9361 16.7982 35.0632C16.8016 32.1916 19.1285 29.8648 21.9997 29.8614H22ZM22 37.3316C23.2528 37.3316 24.2685 36.316 24.2685 35.0632C24.2685 33.8104 23.2529 32.7948 22 32.7948C20.7472 32.7948 19.7316 33.8104 19.7316 35.0632C19.7328 36.3157 20.7477 37.3306 22 37.3317H22.0001L22 37.3316ZM29.0595 44.4108H26.1262C26.1262 42.1319 24.2789 40.2846 22 40.2846C19.7212 40.2846 17.8738 42.132 17.8738 44.4108H14.9404C14.9483 40.511 18.1019 37.3505 21.9982 37.3316H22C25.8982 37.3505 29.0519 40.5111 29.0596 44.41L29.0595 44.4108ZM36.9404 29.8614C39.8133 29.8614 42.1422 32.1903 42.1422 35.0632C42.1422 37.936 39.8133 40.2649 36.9404 40.2649C34.0676 40.2649 31.7387 37.9361 31.7387 35.0632C31.742 32.1916 34.0689 29.8648 36.9401 29.8614H36.9404ZM36.9404 37.3316C38.1933 37.3316 39.2089 36.316 39.2089 35.0632C39.2089 33.8104 38.1933 32.7948 36.9404 32.7948C35.6876 32.7948 34.672 33.8104 34.672 35.0632C34.6731 36.3157 35.6881 37.3306 36.9403 37.3317H36.9404V37.3316ZM44 44.4108H41.0667C41.0667 42.1265 39.215 40.2748 36.9307 40.2748C34.6465 40.2748 32.7947 42.1265 32.7947 44.4108H29.8614C29.8614 40.5065 33.0264 37.3415 36.9306 37.3415C40.8349 37.3415 43.9999 40.5065 43.9999 44.4108H44ZM7.0596 29.8614C9.93241 29.8614 12.2614 32.1903 12.2614 35.0632C12.2614 37.936 9.93241 40.2649 7.0596 40.2649C4.18679 40.2649 1.85783 37.9361 1.85783 35.0632C1.86117 32.1916 4.18809 29.8648 7.05929 29.8614H7.0596ZM7.0596 37.3316C8.31242 37.3316 9.32805 36.316 9.32805 35.0632C9.32805 33.8104 8.31246 32.7948 7.05964 32.7948C5.80682 32.7948 4.79119 33.8104 4.79119 35.0632C4.79236 36.3157 5.80734 37.3306 7.05955 37.3317H7.05969L7.0596 37.3316ZM14.1387 44.4108H11.2054C11.2054 42.1265 9.35364 40.2748 7.0694 40.2748C4.78516 40.2748 2.9334 42.1265 2.9334 44.4108H0C0 40.5065 3.16512 37.3415 7.06936 37.3415C10.9736 37.3415 14.1386 40.5065 14.1386 44.4108H14.1387ZM5.20181 0.000130121H38.7982C41.6697 0.00346959 43.9967 2.33039 44 5.2016V14.538C44 15.9727 43.4203 17.272 42.4823 18.2143L42.4825 18.2141C41.5498 19.1515 40.2588 19.7316 38.8323 19.7316H36.5298V24.6988L29.0263 19.6925H26.3432L22 24.0358L17.6567 19.6925H14.9737L7.47031 24.6987V19.7316H5.16777C3.74125 19.7316 2.45022 19.1515 1.51768 18.2143L1.51746 18.2141C0.57968 17.2712 0 15.9714 0 14.5363V14.5295V14.5298V5.20186C0.00333947 2.33026 2.33026 0.00333947 5.20146 0H5.20177L5.20181 0.000130121ZM38.8178 16.7983H38.8236C39.4427 16.7983 40.003 16.5463 40.4076 16.1394L40.4077 16.1393C40.815 15.7302 41.0668 15.1661 41.0668 14.5431V14.5292V14.5299V5.2019C41.0656 3.94947 40.0506 2.93453 38.7984 2.9334H5.20177C3.94942 2.93453 2.93448 3.94947 2.93336 5.20173V14.5406C2.93336 15.1644 3.18507 15.7293 3.59249 16.1394L3.59236 16.1393C3.997 16.5463 4.55734 16.7983 5.17644 16.7983H10.4035V19.2232L14.0858 16.7592H18.871L22 19.8881L25.1288 16.7592H29.916L33.5963 19.2232V16.7983H38.8178ZM23.7013 7.07925H23.6909C23.0069 7.07925 22.3974 7.39845 22.0034 7.89607L22 7.90054C21.6026 7.39845 20.9931 7.0792 20.3091 7.0792H20.2981H20.2986C19.2186 7.0792 18.3431 7.95475 18.3431 9.03475C18.2649 11.7334 22 12.6721 22 12.6721C22 12.6721 25.735 11.7334 25.735 8.93699C25.6824 7.89915 24.8281 7.07755 23.7819 7.07755C23.7535 7.07755 23.7253 7.07816 23.6973 7.07929L23.7013 7.07925ZM34.9066 7.07925C34.8951 7.07903 34.8815 7.0789 34.8677 7.0789C34.1922 7.0789 33.5916 7.39897 33.209 7.89568L33.2053 7.90058C32.8079 7.39849 32.1984 7.07925 31.5145 7.07925H31.5034H31.504C30.424 7.07925 29.5485 7.95488 29.5485 9.03479C29.5485 11.8313 33.2836 12.7699 33.2836 12.7699C33.2836 12.7699 37.0187 11.8313 37.0187 9.03483V9.02859C37.0187 7.94855 36.1431 7.07304 35.0631 7.07304C35.0081 7.07304 34.9535 7.0753 34.8996 7.07977L34.9067 7.07933L34.9066 7.07925ZM12.496 7.07925H12.4856C11.8016 7.07925 11.1921 7.39845 10.7981 7.89607L10.7947 7.90054C10.4085 7.39888 9.80777 7.07886 9.13237 7.07886C9.11862 7.07886 9.10496 7.07903 9.09134 7.07929H9.09338C8.01339 7.07929 7.13784 7.95479 7.13784 9.03483C7.13784 11.8312 10.873 12.7698 10.873 12.7698C10.873 12.7698 14.6081 11.8312 14.6081 9.03483V9.0285C14.6081 7.94846 13.7325 7.07296 12.6525 7.07296C12.5974 7.07296 12.5429 7.07521 12.489 7.07968L12.4961 7.07916L12.496 7.07925Z"
    fill="#1D1D1D" />
</svg>