<svg width="41" height="40" viewBox="0 0 41 40" fill="none" xmlns="http://www.w3.org/2000/svg">
  <rect x="0.5" width="40" height="40" rx="8" fill="#E7EFFF" />
  <path
    d="M22.5042 37.5199L11.9828 31.4495C11.947 31.4261 11.9172 31.3947 11.8957 31.3577C11.8743 31.3207 11.8618 31.2792 11.8594 31.2365V31.077C11.8618 31.0343 11.8743 30.9928 11.8957 30.9558C11.9172 30.9188 11.947 30.8874 11.9828 30.864L24.811 23.4561C24.8491 23.4368 24.8912 23.4268 24.934 23.4268C24.9767 23.4268 25.0188 23.4368 25.0569 23.4561L35.5783 29.5265C35.614 29.5499 35.6437 29.5813 35.665 29.6183C35.6863 29.6554 35.6985 29.6968 35.7008 29.7395V29.9C35.6985 29.9426 35.6863 29.9841 35.665 30.0211C35.6437 30.0581 35.614 30.0896 35.5783 30.113L22.7501 37.5199C22.712 37.5392 22.6699 37.5492 22.6272 37.5492C22.5845 37.5492 22.5424 37.5392 22.5042 37.5199Z"
    fill="#EBEBEB" />
  <path
    d="M35.5777 29.6665L22.7485 37.0745C22.7105 37.0943 22.6684 37.1046 22.6256 37.1046C22.5828 37.1046 22.5406 37.0943 22.5026 37.0745L11.9822 31.0041C11.9675 30.999 11.9546 30.9894 11.9456 30.9767C11.9365 30.9639 11.9316 30.9487 11.9316 30.9331C11.9316 30.9175 11.9365 30.9022 11.9456 30.8895C11.9546 30.8768 11.9675 30.8672 11.9822 30.8621L24.8104 23.4541C24.8485 23.4348 24.8906 23.4248 24.9333 23.4248C24.9761 23.4248 25.0182 23.4348 25.0563 23.4541L35.5777 29.5245C35.5925 29.5296 35.6053 29.5392 35.6144 29.5519C35.6234 29.5647 35.6283 29.5799 35.6283 29.5955C35.6283 29.6112 35.6234 29.6264 35.6144 29.6391C35.6053 29.6518 35.5925 29.6614 35.5777 29.6665Z"
    fill="#FAFAFA" />
  <path
    d="M35.5777 29.6665L22.7485 37.0745C22.7105 37.0943 22.6684 37.1046 22.6256 37.1046C22.5828 37.1046 22.5406 37.0943 22.5026 37.0745L11.9822 31.0041C11.9675 30.999 11.9546 30.9894 11.9456 30.9767C11.9365 30.9639 11.9316 30.9487 11.9316 30.9331C11.9316 30.9175 11.9365 30.9022 11.9456 30.8895C11.9546 30.8768 11.9675 30.8672 11.9822 30.8621L24.8104 23.4541C24.8485 23.4348 24.8906 23.4248 24.9333 23.4248C24.9761 23.4248 25.0182 23.4348 25.0563 23.4541L35.5777 29.5245C35.5925 29.5296 35.6053 29.5392 35.6144 29.5519C35.6234 29.5647 35.6283 29.5799 35.6283 29.5955C35.6283 29.6112 35.6234 29.6264 35.6144 29.6391C35.6053 29.6518 35.5925 29.6614 35.5777 29.6665Z"
    fill="url(#paint0_linear_2390_31758)" />
  <path
    d="M22.6267 37.1444V37.5467C22.584 37.5474 22.5419 37.5371 22.5042 37.5169L11.9828 31.4465C11.9469 31.4233 11.9169 31.3919 11.8955 31.3548C11.874 31.3178 11.8616 31.2762 11.8594 31.2335V31.074C11.8618 31.0357 11.8723 30.9984 11.89 30.9644C11.9077 30.9304 11.9323 30.9004 11.9623 30.8765C11.918 30.9156 11.9252 30.9691 11.9849 31.003L22.5063 37.0735C22.5164 37.0791 22.5271 37.0836 22.5382 37.0868L22.6267 37.1444Z"
    fill="#E0E0E0" />
  <path
    d="M19.3237 24.191C19.3237 24.191 18.0315 19.5065 16.2093 15.0905C14.4015 10.7167 11.6143 6.27914 11.1482 5.60933L11.142 5.6011L11.1348 5.59081C11.0903 5.53171 11.0284 5.48809 10.9577 5.46612C10.8871 5.44415 10.8113 5.44493 10.7411 5.46836C10.671 5.49179 10.6099 5.53668 10.5667 5.59669C10.5234 5.65669 10.5001 5.72878 10.5 5.80276C10.4999 5.82978 10.503 5.85672 10.5093 5.88302C10.5093 5.88302 11.7439 11.9411 13.527 16.2429C15.3101 20.5447 17.7454 24.8495 17.7454 24.8495C17.785 24.9061 17.837 24.9529 17.8975 24.9863C17.9579 25.0196 18.0252 25.0387 18.0942 25.0419C18.3052 25.0579 18.5171 25.0241 18.7126 24.9431C18.9081 24.8621 19.0819 24.7363 19.2198 24.5758C19.2654 24.5239 19.2984 24.4622 19.3164 24.3955C19.3344 24.3288 19.3369 24.2589 19.3237 24.191Z"
    fill="#407BFF" />
  <path opacity="0.1"
    d="M10.5 5.80701C10.4999 5.83403 10.503 5.86097 10.5093 5.88727C10.5093 5.88727 11.7439 11.9454 13.527 16.2471C14.7236 19.1414 16.2165 22.0357 17.0664 23.6212L17.9985 23.0306C17.9985 23.0306 10.5772 5.58683 10.8539 5.4541C10.8075 5.45397 10.7615 5.463 10.7186 5.48067C10.6756 5.49835 10.6366 5.52432 10.6037 5.5571C10.5709 5.58989 10.5448 5.62884 10.527 5.67172C10.5092 5.71461 10.5 5.76058 10.5 5.80701Z"
    fill="black" />
  <path
    d="M17.7375 24.8536C17.5873 25.6099 17.3259 26.5811 17.8013 27.8425C18.3373 29.2748 19.9619 29.6698 20.7418 29.6709C21.8294 29.6709 22.5177 29.2676 22.5177 29.2676C22.5177 29.2676 21.9549 29.0515 21.7224 28.2387C21.6762 28.0616 21.6479 27.8802 21.638 27.6975C21.5876 27.039 21.566 26.3218 20.9908 25.5265C20.5738 24.9304 19.9946 24.4662 19.322 24.189L17.7375 24.8536Z"
    fill="#EBEBEB" />
  <path
    d="M21.7218 28.2385C21.6756 28.0613 21.6473 27.88 21.6374 27.6973C21.6374 27.7024 21.4409 28.5554 20.9604 28.5049C20.4799 28.4545 20.3431 27.9432 19.7042 27.9432C18.9273 27.9432 18.6598 28.5955 17.9941 28.2436C18.6609 29.3641 20.0344 29.6696 20.7413 29.6707C21.8288 29.6707 22.5171 29.2673 22.5171 29.2673C22.5171 29.2673 21.9564 29.0513 21.7218 28.2385Z"
    fill="#407BFF" />
  <path opacity="0.1"
    d="M19.6913 28.5133C18.434 27.6418 18.6707 25.3237 18.7077 24.9461L17.7375 24.8535C17.5873 25.6097 17.3259 26.581 17.8013 27.8424C18.3373 29.2746 19.9619 29.6697 20.7418 29.6708C21.8294 29.6708 22.5177 29.2674 22.5177 29.2674C22.5177 29.2674 21.1637 29.535 19.6913 28.5133Z"
    fill="black" />
  <path
    d="M17.7399 24.8537C17.7795 24.9103 17.8315 24.957 17.892 24.9904C17.9525 25.0237 18.0198 25.0428 18.0887 25.0461C18.2998 25.062 18.5116 25.0282 18.7071 24.9472C18.9026 24.8663 19.0764 24.7405 19.2143 24.58C19.2615 24.5281 19.296 24.4659 19.3151 24.3985C19.3342 24.331 19.3374 24.26 19.3244 24.1911C19.1413 23.5408 18.9304 22.836 18.7009 22.0952C18.7462 22.2393 18.7009 22.4162 18.5661 22.5973C18.3923 22.8003 18.173 22.9593 17.9261 23.0616C17.6792 23.1639 17.4117 23.2064 17.1452 23.1858C16.9127 23.156 16.7563 23.0552 16.6895 22.9173C17.0928 23.6715 17.4693 24.3763 17.7399 24.8537Z"
    fill="#455A64" />
  <path
    d="M17.9972 23.0302C17.7327 23.1588 17.4381 23.2126 17.1452 23.1855C16.9127 23.1557 16.7563 23.0549 16.6895 22.917C17.0907 23.6712 17.4693 24.376 17.7399 24.8534C17.7795 24.91 17.8315 24.9567 17.892 24.9901C17.9525 25.0234 18.0198 25.0425 18.0887 25.0458C18.2999 25.0642 18.5123 25.0288 18.7061 24.9429L18.7174 24.9233L17.9972 23.0271V23.0302Z"
    fill="#37474F" />
  <defs>
    <linearGradient id="paint0_linear_2390_31758" x1="23.78" y1="23.4248" x2="23.78" y2="37.1046"
      gradientUnits="userSpaceOnUse">
      <stop stop-color="#407BFF" />
      <stop offset="1" stop-color="#FAFAFA" stop-opacity="0" />
    </linearGradient>
  </defs>
</svg>