<svg width="41" height="40" viewBox="0 0 41 40" fill="none" xmlns="http://www.w3.org/2000/svg">
  <rect x="0.5" width="40" height="40" rx="8" fill="#EBFFDB" />
  <g opacity="0.2">
    <path
      d="M6.69157 13.8289L17.635 7.51546C17.7418 7.45443 17.8266 7.5036 17.8266 7.62566V21.8326C17.8245 21.9004 17.806 21.9667 17.7726 22.0258C17.7392 22.0849 17.692 22.1349 17.635 22.1717L6.69157 28.4852C6.58646 28.5462 6.5 28.497 6.5 28.375V14.1544C6.50472 14.0891 6.52447 14.0257 6.5577 13.9693C6.59092 13.9128 6.63674 13.8648 6.69157 13.8289Z"
      fill="black" />
  </g>
  <path
    d="M17.3624 8.39035L7.21582 14.2444C7.15431 14.2846 7.10309 14.3386 7.06629 14.4022C7.02948 14.4659 7.00812 14.5372 7.00391 14.6106V28.4479C7.00829 28.521 7.02993 28.592 7.06707 28.655C7.1042 28.7181 7.15576 28.7715 7.21752 28.8108L7.61932 29.0396C7.68521 29.0722 7.75773 29.0892 7.83123 29.0892C7.90474 29.0892 7.97726 29.0722 8.04315 29.0396L18.1898 23.189C18.2511 23.1487 18.302 23.0946 18.3385 23.031C18.3751 22.9674 18.3961 22.896 18.4 22.8228V8.98542C18.3955 8.91157 18.3732 8.83991 18.3351 8.77647C18.2971 8.71303 18.2443 8.65968 18.1813 8.62092L17.7863 8.39035C17.7204 8.35777 17.6479 8.34082 17.5744 8.34082C17.5009 8.34082 17.4283 8.35777 17.3624 8.39035Z"
    fill="#6AD11B" />
  <path opacity="0.2"
    d="M8.04315 29.0377C7.97715 29.0699 7.90468 29.0866 7.83123 29.0866C7.75779 29.0866 7.68532 29.0699 7.61932 29.0377L7.21752 28.8088C7.15576 28.7695 7.1042 28.7162 7.06707 28.6531C7.02993 28.59 7.00829 28.5191 7.00391 28.446V14.6103C7.00736 14.5339 7.03074 14.4597 7.07172 14.395L7.89396 14.8714C7.85555 14.9343 7.83449 15.0063 7.83293 15.0799V28.9139C7.83971 29.0377 7.91939 29.1089 8.04315 29.0377Z"
    fill="black" />
  <g opacity="0.2">
    <path
      d="M18.4008 8.94643C18.3838 8.83962 18.2974 8.80232 18.1923 8.86335L8.04734 14.714C7.98449 14.7529 7.93257 14.8071 7.89646 14.8716L7.07422 14.3953C7.10899 14.3338 7.15851 14.2819 7.21832 14.2444L17.3649 8.39035C17.4308 8.35777 17.5034 8.34082 17.5769 8.34082C17.6504 8.34082 17.7229 8.35777 17.7888 8.39035L18.1838 8.62092C18.2415 8.65613 18.2908 8.7035 18.3282 8.75972C18.3657 8.81593 18.3905 8.87965 18.4008 8.94643Z"
      fill="white" />
  </g>
  <path
    d="M18.1919 8.86318L8.04524 14.7138C7.98511 14.7547 7.9354 14.8092 7.90007 14.8728C7.86475 14.9364 7.84479 15.0073 7.8418 15.08V28.9157C7.8418 29.0496 7.93673 29.1039 8.05202 29.0378L18.1986 23.1871C18.2599 23.1468 18.3109 23.0927 18.3474 23.0291C18.3839 22.9655 18.405 22.8942 18.4089 22.8209V8.98524C18.4021 8.84962 18.3088 8.79537 18.1919 8.86318Z"
    fill="url(#paint0_linear_2390_31611)" />
  <path
    d="M18.2342 9.03283V22.821C18.2302 22.8646 18.2168 22.9067 18.1948 22.9445C18.1729 22.9822 18.1429 23.0148 18.1071 23.0397L8.01133 28.8666V15.0801C8.01531 15.0364 8.02874 14.994 8.05069 14.9559C8.07265 14.9179 8.1026 14.8851 8.13848 14.8597L18.2427 9.03283M18.2953 8.83447C18.2616 8.83525 18.2288 8.84521 18.2003 8.86329L8.04524 14.7139C7.98511 14.7549 7.9354 14.8093 7.90007 14.8729C7.86475 14.9365 7.84479 15.0074 7.8418 15.0801V28.9158C7.8418 29.0107 7.88927 29.0667 7.95878 29.0667C7.99175 29.0649 8.02376 29.055 8.05202 29.0379L18.1986 23.1872C18.2599 23.147 18.3109 23.0928 18.3474 23.0292C18.3839 22.9656 18.405 22.8943 18.4089 22.821V8.98536C18.4089 8.88872 18.3614 8.83447 18.2936 8.83447H18.2953Z"
    fill="#6AD11B" />
  <path
    d="M11.2981 15.4512V16.9109C10.6658 17.2754 10.1538 18.2536 10.1538 19.0962L9.05859 19.7285C9.05859 18.079 10.0605 16.1649 11.2981 15.4512Z"
    fill="#6AD11B" />
  <path
    d="M10.4759 19.9696L9.68756 21.4445C9.2756 21.1055 9.05859 20.5257 9.05859 19.7339L10.1538 19.1016C10.1538 19.5067 10.2758 19.8102 10.4759 19.9696Z"
    fill="#6AD11B" />
  <path
    d="M13.5359 17.1432C13.5359 18.791 12.534 20.7034 11.2981 21.4205C10.6538 21.7918 10.1334 21.7969 9.6875 21.4392L10.4758 19.9693C10.6827 20.1388 10.9743 20.1388 11.2981 19.9693C11.9287 19.6031 12.4407 18.6266 12.4407 17.784C12.4407 16.9414 11.9321 16.5549 11.2981 16.9194V15.4512C12.534 14.7375 13.5359 15.4953 13.5359 17.1432Z"
    fill="#6AD11B" />
  <g opacity="0.4">
    <path
      d="M13.534 17.1432C13.534 18.791 12.532 20.7034 11.2961 21.4205C10.6519 21.7918 10.1314 21.7969 9.68555 21.4392L10.4739 19.9693C10.6807 20.1388 10.9723 20.1388 11.2961 19.9693C11.9268 19.6031 12.4388 18.6266 12.4388 17.784C12.4388 16.9414 11.9302 16.5549 11.2961 16.9194V15.4512C12.532 14.7375 13.534 15.4953 13.534 17.1432Z"
      fill="white" />
  </g>
  <path
    d="M11.8932 19.3914C11.7368 19.6207 11.5341 19.8148 11.2981 19.961C10.9743 20.1475 10.6827 20.1305 10.4759 19.961C10.2691 19.7915 10.1538 19.4982 10.1538 19.0879L9.05859 19.7203C9.05859 20.512 9.2756 21.0986 9.68756 21.4309C10.1334 21.7886 10.6539 21.7835 11.2981 21.4122C11.7696 21.1204 12.1741 20.7321 12.4849 20.2729L11.8932 19.3914Z"
    fill="#6AD11B" />
  <path opacity="0.3"
    d="M11.8932 19.3914C11.7368 19.6207 11.5341 19.8148 11.2981 19.961C10.9743 20.1475 10.6827 20.1305 10.4759 19.961C10.2691 19.7915 10.1538 19.4982 10.1538 19.0879L9.05859 19.7203C9.05859 20.512 9.2756 21.0986 9.68756 21.4309C10.1334 21.7886 10.6539 21.7835 11.2981 21.4122C11.7696 21.1204 12.1741 20.7321 12.4849 20.2729L11.8932 19.3914Z"
    fill="black" />
  <path
    d="M14.9087 14.5443L14.256 14.9207C14.2522 14.9235 14.249 14.9271 14.2467 14.9311C14.2443 14.9352 14.2429 14.9398 14.2424 14.9444V15.6972C14.242 15.6989 14.2422 15.7007 14.2428 15.7023C14.2435 15.7039 14.2447 15.7053 14.2462 15.7062C14.2477 15.7071 14.2494 15.7076 14.2512 15.7075C14.2529 15.7074 14.2546 15.7067 14.256 15.7056L14.9087 15.3293C14.9125 15.3265 14.9156 15.3229 14.9179 15.3188C14.9203 15.3148 14.9217 15.3102 14.9222 15.3055V14.5528C14.9226 14.5511 14.9225 14.5493 14.9218 14.5477C14.9211 14.5461 14.9199 14.5447 14.9184 14.5438C14.917 14.5428 14.9152 14.5424 14.9135 14.5425C14.9117 14.5426 14.91 14.5432 14.9087 14.5443Z"
    fill="#6AD11B" />
  <path opacity="0.4"
    d="M14.9087 14.5443L14.256 14.9207C14.2522 14.9235 14.249 14.9271 14.2467 14.9311C14.2443 14.9352 14.2429 14.9398 14.2424 14.9444V15.6972C14.242 15.6989 14.2422 15.7007 14.2428 15.7023C14.2435 15.7039 14.2447 15.7053 14.2462 15.7062C14.2477 15.7071 14.2494 15.7076 14.2512 15.7075C14.2529 15.7074 14.2546 15.7067 14.256 15.7056L14.9087 15.3293C14.9125 15.3265 14.9156 15.3229 14.9179 15.3188C14.9203 15.3148 14.9217 15.3102 14.9222 15.3055V14.5528C14.9226 14.5511 14.9225 14.5493 14.9218 14.5477C14.9211 14.5461 14.9199 14.5447 14.9184 14.5438C14.917 14.5428 14.9152 14.5424 14.9135 14.5425C14.9117 14.5426 14.91 14.5432 14.9087 14.5443Z"
    fill="white" />
  <path
    d="M15.3934 14.536C15.3851 14.5361 15.377 14.5339 15.3698 14.5297C15.3626 14.5255 15.3567 14.5195 15.3527 14.5122C15.3494 14.5068 15.3472 14.5007 15.3462 14.4945C15.3453 14.4882 15.3456 14.4817 15.3472 14.4756C15.3488 14.4694 15.3516 14.4636 15.3554 14.4585C15.3593 14.4535 15.3642 14.4492 15.3697 14.4461L17.1973 13.3967C17.2027 13.3933 17.2087 13.3911 17.215 13.3902C17.2213 13.3892 17.2278 13.3896 17.2339 13.3911C17.2401 13.3927 17.2459 13.3955 17.2509 13.3994C17.256 13.4033 17.2602 13.4081 17.2634 13.4136C17.2667 13.4192 17.2688 13.4253 17.2696 13.4317C17.2704 13.438 17.27 13.4445 17.2682 13.4507C17.2665 13.4569 17.2635 13.4626 17.2595 13.4676C17.2554 13.4726 17.2504 13.4767 17.2447 13.4798L15.4172 14.5292C15.4102 14.5339 15.4019 14.5363 15.3934 14.536Z"
    fill="#455A64" />
  <path
    d="M15.3934 14.9514C15.3851 14.9515 15.377 14.9493 15.3698 14.9451C15.3626 14.941 15.3567 14.9349 15.3527 14.9276C15.3494 14.9222 15.3472 14.9162 15.3462 14.9099C15.3453 14.9036 15.3456 14.8971 15.3472 14.891C15.3488 14.8848 15.3516 14.879 15.3554 14.874C15.3593 14.8689 15.3642 14.8647 15.3697 14.8615L17.1973 13.8155C17.2083 13.8092 17.2214 13.8075 17.2337 13.8106C17.2461 13.8138 17.2567 13.8216 17.2634 13.8324C17.2667 13.838 17.2688 13.8441 17.2696 13.8505C17.2704 13.8568 17.27 13.8633 17.2682 13.8695C17.2665 13.8757 17.2635 13.8814 17.2595 13.8864C17.2554 13.8914 17.2504 13.8956 17.2447 13.8986L15.4172 14.948C15.4098 14.9516 15.4015 14.9528 15.3934 14.9514Z"
    fill="#455A64" />
  <path
    d="M14.9104 16.0853L14.2577 16.4617C14.2539 16.4645 14.2508 16.468 14.2484 16.4721C14.2461 16.4762 14.2446 16.4807 14.2441 16.4854V17.2381C14.2449 17.2392 14.246 17.24 14.2471 17.2406C14.2483 17.2412 14.2496 17.2415 14.2509 17.2415C14.2522 17.2415 14.2535 17.2412 14.2547 17.2406C14.2559 17.24 14.2569 17.2392 14.2577 17.2381L14.9104 16.8669C14.9142 16.8641 14.9174 16.8605 14.9197 16.8564C14.922 16.8523 14.9235 16.8478 14.924 16.8431V16.0904C14.9237 16.089 14.9231 16.0876 14.9221 16.0865C14.9212 16.0854 14.92 16.0845 14.9186 16.084C14.9173 16.0835 14.9158 16.0834 14.9144 16.0836C14.9129 16.0838 14.9116 16.0844 14.9104 16.0853Z"
    fill="#6AD11B" />
  <path
    d="M15.3934 16.077C15.3851 16.0771 15.377 16.0749 15.3698 16.0707C15.3626 16.0666 15.3567 16.0605 15.3527 16.0532C15.3494 16.0478 15.3472 16.0418 15.3462 16.0355C15.3453 16.0292 15.3456 16.0227 15.3472 16.0166C15.3488 16.0104 15.3516 16.0046 15.3554 15.9996C15.3593 15.9945 15.3642 15.9903 15.3697 15.9871L17.1973 14.9377C17.2027 14.9344 17.2087 14.9322 17.215 14.9312C17.2213 14.9302 17.2278 14.9306 17.2339 14.9322C17.2401 14.9337 17.2459 14.9365 17.2509 14.9404C17.256 14.9443 17.2602 14.9491 17.2634 14.9547C17.2667 14.9602 17.2688 14.9663 17.2696 14.9727C17.2704 14.9791 17.27 14.9855 17.2682 14.9917C17.2665 14.9979 17.2635 15.0036 17.2595 15.0086C17.2554 15.0136 17.2504 15.0178 17.2447 15.0208L15.4172 16.0702C15.4102 16.075 15.4019 16.0773 15.3934 16.077Z"
    fill="#455A64" />
  <path
    d="M15.3934 16.4924C15.3851 16.4925 15.377 16.4903 15.3698 16.4861C15.3626 16.4819 15.3567 16.4759 15.3527 16.4686C15.3494 16.4632 15.3472 16.4572 15.3462 16.4509C15.3453 16.4446 15.3456 16.4381 15.3472 16.432C15.3488 16.4258 15.3516 16.42 15.3554 16.4149C15.3593 16.4099 15.3642 16.4057 15.3697 16.4025L17.1973 15.3531C17.2083 15.3468 17.2214 15.3451 17.2337 15.3482C17.2461 15.3514 17.2567 15.3592 17.2634 15.37C17.2667 15.3756 17.2688 15.3817 17.2696 15.3881C17.2704 15.3944 17.27 15.4009 17.2682 15.4071C17.2665 15.4133 17.2635 15.419 17.2595 15.424C17.2554 15.429 17.2504 15.4332 17.2447 15.4362L15.4172 16.4856C15.4102 16.4903 15.4019 16.4927 15.3934 16.4924Z"
    fill="#455A64" />
  <path
    d="M14.9104 17.6264L14.2577 18.0028C14.2539 18.0056 14.2508 18.0092 14.2484 18.0132C14.2461 18.0173 14.2446 18.0219 14.2441 18.0265V18.7793C14.2449 18.7803 14.246 18.7812 14.2471 18.7818C14.2483 18.7824 14.2496 18.7827 14.2509 18.7827C14.2522 18.7827 14.2535 18.7824 14.2547 18.7818C14.2559 18.7812 14.2569 18.7803 14.2577 18.7793L14.9104 18.4029C14.9142 18.4001 14.9174 18.3966 14.9197 18.3925C14.922 18.3884 14.9235 18.3839 14.924 18.3792V17.6264C14.9232 17.6254 14.9222 17.6245 14.921 17.6239C14.9198 17.6234 14.9185 17.623 14.9172 17.623C14.9159 17.623 14.9146 17.6234 14.9134 17.6239C14.9122 17.6245 14.9112 17.6254 14.9104 17.6264Z"
    fill="#6AD11B" />
  <path opacity="0.3"
    d="M14.9104 17.6264L14.2577 18.0028C14.2539 18.0056 14.2508 18.0092 14.2484 18.0132C14.2461 18.0173 14.2446 18.0219 14.2441 18.0265V18.7793C14.2449 18.7803 14.246 18.7812 14.2471 18.7818C14.2483 18.7824 14.2496 18.7827 14.2509 18.7827C14.2522 18.7827 14.2535 18.7824 14.2547 18.7818C14.2559 18.7812 14.2569 18.7803 14.2577 18.7793L14.9104 18.4029C14.9142 18.4001 14.9174 18.3966 14.9197 18.3925C14.922 18.3884 14.9235 18.3839 14.924 18.3792V17.6264C14.9232 17.6254 14.9222 17.6245 14.921 17.6239C14.9198 17.6234 14.9185 17.623 14.9172 17.623C14.9159 17.623 14.9146 17.6234 14.9134 17.6239C14.9122 17.6245 14.9112 17.6254 14.9104 17.6264Z"
    fill="black" />
  <path
    d="M15.3933 17.618C15.3848 17.6181 15.3764 17.6158 15.3692 17.6113C15.362 17.6068 15.3562 17.6003 15.3526 17.5926C15.3493 17.5873 15.3472 17.5813 15.3462 17.5752C15.3453 17.569 15.3456 17.5627 15.3472 17.5567C15.3488 17.5506 15.3516 17.545 15.3554 17.5401C15.3593 17.5352 15.3641 17.5311 15.3696 17.5281L17.1972 16.4787C17.2026 16.4754 17.2086 16.4732 17.2149 16.4722C17.2212 16.4713 17.2277 16.4716 17.2338 16.4732C17.24 16.4747 17.2458 16.4776 17.2508 16.4814C17.2559 16.4853 17.2601 16.4901 17.2633 16.4957C17.2666 16.5012 17.2687 16.5073 17.2695 16.5137C17.2703 16.5201 17.2699 16.5265 17.2681 16.5327C17.2664 16.5389 17.2634 16.5447 17.2594 16.5497C17.2553 16.5547 17.2503 16.5588 17.2446 16.5618L15.4171 17.6112C15.4101 17.616 15.4018 17.6184 15.3933 17.618Z"
    fill="#455A64" />
  <path
    d="M15.3934 18.0334C15.3851 18.0335 15.377 18.0313 15.3698 18.0271C15.3626 18.023 15.3567 18.0169 15.3527 18.0096C15.3494 18.0042 15.3472 17.9982 15.3462 17.9919C15.3453 17.9856 15.3456 17.9792 15.3472 17.973C15.3488 17.9668 15.3516 17.961 15.3554 17.956C15.3593 17.9509 15.3642 17.9467 15.3697 17.9435L17.1973 16.8941C17.2083 16.8878 17.2214 16.8861 17.2337 16.8892C17.2461 16.8924 17.2567 16.9002 17.2634 16.9111C17.2667 16.9166 17.2688 16.9227 17.2696 16.9291C17.2704 16.9355 17.27 16.9419 17.2682 16.9481C17.2665 16.9543 17.2635 16.9601 17.2595 16.965C17.2554 16.97 17.2504 16.9742 17.2447 16.9772L15.4172 18.0266C15.4102 18.0314 15.4019 18.0337 15.3934 18.0334Z"
    fill="#455A64" />
  <path
    d="M9.05686 24.6183C9.04839 24.6182 9.0401 24.6158 9.03292 24.6113C9.02573 24.6068 9.01994 24.6004 9.01617 24.5928C9.00989 24.5818 9.00815 24.5687 9.01131 24.5563C9.01447 24.544 9.02229 24.5334 9.03313 24.5267L17.1962 19.8204C17.2075 19.8143 17.2207 19.8128 17.2331 19.8163C17.2454 19.8198 17.2559 19.828 17.2623 19.8391C17.2685 19.8504 17.2699 19.8636 17.2665 19.8759C17.263 19.8883 17.2548 19.8988 17.2437 19.9052L9.08229 24.6115C9.07431 24.6153 9.06569 24.6176 9.05686 24.6183Z"
    fill="#455A64" />
  <path
    d="M9.05686 25.4607C9.0486 25.4607 9.0405 25.4584 9.03336 25.4543C9.02623 25.4501 9.0203 25.4442 9.01617 25.437C9.00989 25.4259 9.00815 25.4129 9.01131 25.4005C9.01447 25.3882 9.02229 25.3776 9.03313 25.3709L17.1962 20.6646C17.2073 20.6583 17.2203 20.6566 17.2327 20.6597C17.245 20.6629 17.2556 20.6707 17.2623 20.6816C17.2656 20.6871 17.2677 20.6932 17.2685 20.6996C17.2694 20.706 17.2689 20.7124 17.2671 20.7186C17.2654 20.7248 17.2624 20.7306 17.2584 20.7356C17.2544 20.7406 17.2493 20.7447 17.2437 20.7477L9.08229 25.454C9.07462 25.4586 9.06581 25.4609 9.05686 25.4607Z"
    fill="#455A64" />
  <path
    d="M9.05686 26.3048C9.04839 26.3047 9.0401 26.3023 9.03292 26.2978C9.02573 26.2934 9.01994 26.287 9.01617 26.2794C9.00989 26.2683 9.00815 26.2552 9.01131 26.2429C9.01447 26.2306 9.02229 26.2199 9.03313 26.2133L17.1962 21.507C17.2072 21.5029 17.2193 21.5029 17.2303 21.5069C17.2413 21.511 17.2505 21.5188 17.2562 21.529C17.2619 21.5393 17.2638 21.5512 17.2615 21.5627C17.2592 21.5742 17.2529 21.5845 17.2437 21.5918L9.08229 26.298C9.07431 26.3018 9.06569 26.3041 9.05686 26.3048Z"
    fill="#455A64" />
  <path
    d="M30.523 30.5382L30.5094 30.5246L24.808 24.1569C24.7487 24.0845 24.7099 23.9976 24.6956 23.9052C24.6813 23.8128 24.692 23.7182 24.7266 23.6313C24.8123 23.3842 24.9553 23.1609 25.1439 22.9797C25.3324 22.7985 25.5613 22.6645 25.8116 22.5887C25.9007 22.5569 25.9965 22.549 26.0896 22.5656C26.1826 22.5823 26.2697 22.623 26.3422 22.6837L32.6506 28.4614L32.6625 28.4749L32.6828 28.4936C32.8201 28.6314 32.9285 28.7951 33.0018 28.9753C33.075 29.1555 33.1116 29.3484 33.1094 29.5429C33.1072 29.7374 33.0662 29.9295 32.9889 30.1079C32.9116 30.2864 32.7995 30.4476 32.6591 30.5822C32.3724 30.8554 31.99 31.0052 31.5941 30.9995C31.1982 30.9938 30.8203 30.833 30.5416 30.5517L30.523 30.5382Z"
    fill="#6AD11B" />
  <path opacity="0.25"
    d="M25.8148 22.5956C26.2827 22.4786 26.5556 22.7651 26.4251 23.216C26.3391 23.4625 26.1962 23.6852 26.008 23.8661C25.8197 24.047 25.5915 24.1809 25.3418 24.257C24.8739 24.374 24.5992 24.0875 24.7298 23.6382C24.8154 23.3911 24.9584 23.1678 25.147 22.9865C25.3356 22.8053 25.5644 22.6713 25.8148 22.5956Z"
    fill="black" />
  <path opacity="0.1"
    d="M31.7055 28.8443L26.2109 23.6294C26.3043 23.5044 26.3759 23.3646 26.4229 23.2158C26.4575 23.1293 26.4684 23.0351 26.4544 22.943C26.4404 22.8509 26.402 22.7642 26.3432 22.6919L32.6499 28.4679L32.6617 28.4815L32.6821 28.5001C32.8193 28.6379 32.9278 28.8017 33.001 28.9818C33.0743 29.162 33.1108 29.355 33.1086 29.5495C33.1064 29.7439 33.0655 29.936 32.9881 30.1145C32.9108 30.2929 32.7987 30.4542 32.6583 30.5888C32.9075 30.1853 32.4278 29.5343 31.7055 28.8443Z"
    fill="black" />
  <path
    d="M22.9973 21.4664C23.0494 21.317 23.1359 21.1821 23.2499 21.0725C23.3639 20.9629 23.5022 20.8818 23.6534 20.8357C23.7071 20.8161 23.7649 20.8109 23.8211 20.8208C23.8774 20.8306 23.93 20.855 23.9739 20.8916L26.0371 22.9803C26.0729 23.0242 26.0963 23.077 26.105 23.133C26.1136 23.189 26.1071 23.2463 26.0862 23.299C26.0341 23.4481 25.9475 23.5827 25.8335 23.692C25.7195 23.8013 25.5813 23.8822 25.4302 23.928C25.3766 23.9478 25.3187 23.953 25.2624 23.9432C25.2061 23.9333 25.1535 23.9088 25.1097 23.872L23.0465 21.7834C23.0105 21.7399 22.987 21.6874 22.9783 21.6316C22.9697 21.5758 22.9762 21.5187 22.9973 21.4664Z"
    fill="#E0E0E0" />
  <path opacity="0.25"
    d="M25.1069 22.0411L24.3406 21.2646C24.1016 21.6359 23.849 21.9936 23.5879 22.3327L24.3423 23.0956C24.6102 22.7566 24.8645 22.4039 25.1069 22.0411Z"
    fill="black" />
  <path
    d="M25.091 12.5115L23.7805 11.7638C22.7921 11.1942 21.4223 11.2755 19.9101 12.147C16.8873 13.8932 14.4375 18.1383 14.4375 21.629C14.4375 23.3752 15.0495 24.6009 16.0413 25.1723L17.345 25.9182C17.7798 26.1631 18.2718 26.2883 18.7708 26.281C19.5066 26.281 20.3356 26.042 21.2155 25.5334C24.2383 23.7889 26.688 19.5437 26.688 16.053C26.6914 14.3102 26.0794 13.0845 25.091 12.5115ZM18.1011 17.4144C19.0607 15.7529 20.322 14.4153 21.6529 13.6473C22.2454 13.276 22.9215 13.0592 23.6195 13.0167C23.7203 13.014 23.8211 13.0185 23.9212 13.0302C24.3366 13.5524 24.5655 14.3475 24.5655 15.3579C24.5655 16.8956 24.0365 18.6571 23.0787 20.3185C22.1208 21.9799 20.8578 23.3159 19.5269 24.0839C18.8115 24.4975 18.1164 24.7162 17.5162 24.7162C17.4301 24.7163 17.3441 24.7112 17.2585 24.701C17.182 24.6038 17.1134 24.5006 17.0534 24.3924C16.7686 23.8838 16.6143 23.2057 16.6143 22.3733C16.6143 20.8356 17.1433 19.0707 18.1011 17.4144Z"
    fill="#455A64" />
  <path opacity="0.1"
    d="M15.8711 16.5414L17.9275 17.7281C17.9835 17.6247 18.0411 17.5213 18.0971 17.4195C18.3917 16.9077 18.7226 16.4177 19.0872 15.9531L17.0256 14.7663C16.5941 15.3263 16.208 15.9199 15.8711 16.5414ZM18.3632 13.3066C18.1089 13.5389 17.8546 13.7898 17.6241 14.0526L19.6975 15.2393C19.9372 14.9805 20.1913 14.7354 20.4587 14.5052L18.3632 13.3066Z"
    fill="white" />
  <path
    d="M17.3387 25.9134L16.0452 25.1742C15.0551 24.6029 14.4414 23.3771 14.4414 21.6309C14.4414 21.5631 14.4414 21.497 14.4414 21.4292L15.7434 22.1735C15.7434 22.2413 15.7434 22.3091 15.7434 22.3752C15.7451 24.1146 16.3554 25.3437 17.3387 25.9134Z"
    fill="#37474F" />
  <path
    d="M25.2446 13.8152C25.0941 13.5961 24.8977 13.4124 24.669 13.2768C24.4404 13.1413 24.185 13.0572 23.9205 13.0303C24.3359 13.5524 24.5647 14.3476 24.5647 15.358C24.5647 16.8957 24.0358 18.6571 23.0779 20.3185C22.1201 21.98 20.857 23.3159 19.5262 24.0839C18.8107 24.4976 18.1157 24.7163 17.5155 24.7163C17.4294 24.7164 17.3433 24.7113 17.2578 24.701C17.4252 24.9152 17.6378 25.0898 17.8805 25.2123C18.1231 25.3348 18.3898 25.4022 18.6616 25.4097H18.7734C19.3736 25.4097 20.0687 25.191 20.7841 24.7773C22.115 24.0093 23.3763 22.6717 24.3359 21.0102C25.2954 19.3488 25.8227 17.5874 25.8227 16.0497C25.8227 15.0986 25.6175 14.3374 25.2446 13.8152Z"
    fill="#263238" />
  <path
    d="M21.2204 12.8927C18.1976 14.6389 15.7461 18.8841 15.7461 22.3731C15.7461 25.8621 18.1976 27.2794 21.2204 25.5332C24.2432 23.787 26.6929 19.5436 26.6929 16.0529C26.6929 12.5622 24.2432 11.1482 21.2204 12.8927ZM20.7863 24.7805C20.0692 25.1941 19.3758 25.4128 18.7757 25.4128C18.4223 25.4219 18.0735 25.3312 17.7692 25.1514C17.4649 24.9715 17.2174 24.7096 17.0549 24.3956C16.7684 23.887 16.6158 23.2089 16.6158 22.3765C16.6158 20.8388 17.1431 19.0774 18.1026 17.4176C19.0622 15.7579 20.3235 14.4152 21.6544 13.6455C22.247 13.2744 22.9231 13.0576 23.621 13.0148H23.665C25.0213 13.0148 25.8249 14.1507 25.8249 16.0529C25.8249 17.5922 25.296 19.3537 24.3381 21.0134C23.3802 22.6732 22.1172 24.0125 20.7863 24.7805Z"
    fill="#B7E892" />
  <path
    d="M17.0725 17.4805C16.5685 18.4665 16.1952 19.514 15.9621 20.5965C15.8492 21.136 15.7867 21.6848 15.7756 22.2359C15.7613 22.7869 15.8218 23.3372 15.9553 23.8719C16.0844 24.4068 16.3324 24.9057 16.6809 25.3316C17.0387 25.7517 17.5198 26.0483 18.0558 26.1793C18.594 26.3031 19.1543 26.2944 19.6884 26.1538C20.2234 26.0214 20.7371 25.8142 21.2142 25.5384C20.7388 25.8254 20.2251 26.0434 19.6884 26.1861C19.1494 26.33 18.5836 26.3422 18.0389 26.2217C17.492 26.0911 17.0002 25.7916 16.6334 25.3655C16.2745 24.9363 16.0187 24.4306 15.8858 23.8872C15.7549 23.3469 15.6979 22.7915 15.7162 22.2359C15.7304 21.681 15.7968 21.1287 15.9146 20.5863C16.0317 20.0452 16.1875 19.5132 16.3808 18.9944C16.5809 18.4764 16.8119 17.9708 17.0725 17.4805Z"
    fill="#455A64" />
  <path
    d="M23.665 13.0149C23.9394 13.0103 24.2121 13.0605 24.4669 13.1624C24.724 13.2712 24.9535 13.4363 25.1383 13.6456C25.3203 13.8537 25.4659 14.0909 25.5689 14.3475C25.6746 14.6032 25.7513 14.8699 25.7977 15.1426C25.8842 15.687 25.8995 16.2404 25.8435 16.7888C25.7912 17.336 25.689 17.8774 25.5384 18.4061C25.39 18.936 25.2006 19.4535 24.9721 19.954C24.7472 20.4556 24.4889 20.9415 24.199 21.4086C23.6266 22.3512 22.9196 23.205 22.1002 23.9431C21.6862 24.309 21.235 24.6306 20.7541 24.9027C20.2718 25.1829 19.7428 25.3736 19.1927 25.4655C18.9117 25.5109 18.625 25.5081 18.345 25.4571C17.9223 25.376 17.5397 25.1536 17.26 24.8264C17.1677 24.7217 17.0859 24.6081 17.0159 24.4873C16.8763 24.2448 16.7713 23.9841 16.7039 23.7126C16.5749 23.174 16.5281 22.619 16.5649 22.0664C16.5999 21.5125 16.6891 20.9634 16.8311 20.427C16.9684 19.8964 17.1464 19.3773 17.3634 18.874C17.579 18.3713 17.8282 17.8836 18.1094 17.4144C17.5731 18.3655 17.1709 19.3861 16.9141 20.4473C16.7865 20.9756 16.7099 21.515 16.6853 22.0579C16.6567 22.5985 16.7099 23.1403 16.8429 23.6651C16.9118 23.9233 17.0156 24.1708 17.1515 24.4009C17.2831 24.6299 17.4595 24.83 17.6703 24.9891C17.882 25.1443 18.1259 25.2498 18.384 25.2977C18.6455 25.3418 18.9125 25.3418 19.174 25.2977C19.704 25.2057 20.2129 25.0184 20.6761 24.745C21.1453 24.4761 21.5856 24.1597 21.99 23.8007C22.8004 23.0775 23.5006 22.2396 24.0685 21.3136C24.6465 20.3931 25.0987 19.3993 25.4129 18.3587C25.5702 17.8386 25.6792 17.3051 25.7384 16.765C25.8006 16.2261 25.7932 15.6814 25.7164 15.1443C25.6784 14.8763 25.6102 14.6136 25.5129 14.361C25.4183 14.1075 25.2813 13.8719 25.1077 13.6643C24.9316 13.4573 24.7115 13.2923 24.4635 13.1811C24.2107 13.0742 23.9395 13.0178 23.665 13.0149Z"
    fill="#455A64" />
  <path opacity="0.3"
    d="M24.2881 13.1079C24.0845 13.0448 23.8723 13.0134 23.6591 13.0147H23.615C22.9183 13.0578 22.2434 13.2746 21.6518 13.6454C20.321 14.4133 19.0597 15.751 18.1001 17.4124C17.1405 19.0738 16.6133 20.8336 16.6133 22.3713C16.6133 23.2003 16.7676 23.8835 17.0524 24.3904C17.1739 24.6135 17.3353 24.8124 17.5288 24.977C17.7322 25.0409 17.9445 25.0723 18.1577 25.0703C18.7579 25.0703 19.453 24.8533 20.1684 24.4396C21.4993 23.6716 22.7606 22.3323 23.7202 20.6726C24.6797 19.0128 25.2053 17.2497 25.2053 15.712C25.2053 14.5032 24.8798 13.603 24.2881 13.1079Z"
    fill="white" />
  <defs>
    <linearGradient id="paint0_linear_2390_31611" x1="13.1253" y1="8.83398" x2="13.1253"
      y2="29.0659" gradientUnits="userSpaceOnUse">
      <stop stop-color="#DBFFBF" />
      <stop offset="1" stop-color="white" />
    </linearGradient>
  </defs>
</svg>