<svg width="41" height="40" viewBox="0 0 41 40" fill="none" xmlns="http://www.w3.org/2000/svg">
  <rect x="0.5" width="40" height="40" rx="8" fill="#FFF7DE" />
  <path
    d="M19.816 14.3849C19.3936 14.6285 19.0493 15.2838 19.0493 15.8483C19.0493 16.3508 19.3234 16.6115 19.6785 16.4893V27.1556L15.7908 18.9981C15.726 18.8389 15.7234 18.6611 15.7836 18.5001C16.7652 16.2286 17.4915 13.6694 17.736 11.0437C17.7482 10.9609 17.7779 10.8817 17.823 10.8112C17.868 10.7407 17.9276 10.6805 17.9976 10.6347L21.6291 8.53757C21.6538 8.51705 21.6841 8.50429 21.716 8.50091C21.7479 8.49752 21.7802 8.50367 21.8086 8.51857C21.8371 8.53346 21.8605 8.55645 21.8759 8.58463C21.8913 8.6128 21.898 8.64491 21.8952 8.6769C22.1397 10.9484 22.8346 12.6321 23.7766 13.7683C23.827 13.8339 23.8621 13.9098 23.8793 13.9907C23.8966 14.0716 23.8956 14.1553 23.8764 14.2357C23.3299 16.0119 20.1801 26.2558 19.9509 27.0001V16.3337C20.3104 16.0407 20.5801 15.4663 20.5801 14.9638C20.5819 14.3984 20.2394 14.1404 19.816 14.3849Z"
    fill="#FFC100" />
  <path
    d="M25.6547 15.2595L21.7292 28.0239L21.4595 27.8684V28.183L19.6824 27.1556L15.7947 18.9981C15.7299 18.8388 15.7273 18.6611 15.7875 18.5001C16.7691 16.2285 17.4954 13.6694 17.7399 11.0437C17.7521 10.9609 17.7818 10.8816 17.8269 10.8111C17.8719 10.7406 17.9315 10.6805 18.0015 10.6347L21.633 8.53754C21.7065 8.50034 21.7876 8.48096 21.8699 8.48096C21.9522 8.48096 22.0333 8.50034 22.1068 8.53754L23.412 9.29082C23.4822 9.33694 23.5419 9.39723 23.5874 9.46782C23.633 9.53841 23.6632 9.61774 23.6762 9.70072C23.9198 11.9722 24.6147 13.6559 25.5576 14.7912C25.6075 14.8572 25.6421 14.9334 25.6589 15.0144C25.6757 15.0954 25.6742 15.1791 25.6547 15.2595Z"
    fill="#FFC100" />
  <path opacity="0.15"
    d="M22.3621 15.9902C22.3621 16.4945 22.0924 17.0689 21.7329 17.3601V28.0265L21.4632 27.871V17.5157C21.1037 17.6388 20.834 17.379 20.834 16.8765C20.834 16.3111 21.1765 15.6558 21.5998 15.4113C22.0232 15.1668 22.3621 15.4266 22.3621 15.9902Z"
    fill="black" />
  <path
    d="M25.6563 15.2598L21.7308 28.0242V17.3606C22.0904 17.0693 22.3601 16.4949 22.3601 15.9906C22.3601 15.427 22.0176 15.1672 21.5942 15.4117C21.1708 15.6562 20.8283 16.3106 20.8283 16.877C20.8283 17.3794 21.098 17.6392 21.4576 17.5161V28.1833L17.5689 20.0276C17.5034 19.8686 17.5005 19.6907 17.5608 19.5296C18.5424 17.2581 19.2687 14.6989 19.515 12.0687C19.5272 11.9859 19.5566 11.9066 19.6016 11.8359C19.6465 11.7653 19.7058 11.7049 19.7757 11.6588L23.4064 9.56259C23.431 9.54333 23.4606 9.53152 23.4917 9.52857C23.5228 9.52561 23.5541 9.53163 23.5819 9.5459C23.6097 9.56018 23.6329 9.58213 23.6486 9.60914C23.6643 9.63615 23.672 9.6671 23.6707 9.69833C23.9143 11.9698 24.6091 13.6535 25.5521 14.7888C25.6036 14.8545 25.6397 14.931 25.6577 15.0125C25.6757 15.094 25.6753 15.1785 25.6563 15.2598Z"
    fill="#FFC100" />
  <path opacity="0.25"
    d="M19.5936 11.8619C19.5544 11.9257 19.5296 11.9971 19.5207 12.0714C19.2744 14.698 18.5481 17.2562 17.5665 19.5322C17.5333 19.6181 17.5189 19.71 17.5243 19.8019L15.7454 18.7754C15.7397 18.6821 15.7538 18.5887 15.7867 18.5012C16.7692 16.2297 17.4946 13.6705 17.74 11.0448C17.75 10.9703 17.7754 10.8986 17.8146 10.8345L19.5936 11.8619Z"
    fill="white" />
  <path opacity="0.15"
    d="M23.667 9.66576C23.6626 9.63836 23.651 9.61262 23.6334 9.59112C23.6158 9.56963 23.5929 9.55313 23.567 9.54329C23.541 9.53346 23.5129 9.53062 23.4855 9.53508C23.4581 9.53953 23.4324 9.55112 23.4109 9.56868L19.7793 11.6649C19.7007 11.7147 19.636 11.7837 19.5914 11.8654L17.8125 10.8343C17.8572 10.7538 17.9212 10.6856 17.9986 10.6357L21.6301 8.53854C21.7039 8.50132 21.7853 8.48193 21.8679 8.48193C21.9505 8.48193 22.0319 8.50132 22.1057 8.53854L23.41 9.29182C23.541 9.37831 23.6332 9.51244 23.667 9.66576Z"
    fill="black" />
  <path
    d="M16.9394 7.37802L22.6923 4.05658C22.7658 4.01938 22.8469 4 22.9292 4C23.0115 4 23.0927 4.01938 23.1661 4.05658L24.4704 4.81166C24.5396 4.85654 24.5971 4.91716 24.6384 4.98856C24.6796 5.05996 24.7034 5.14011 24.7077 5.22246V7.75556C24.7032 7.83787 24.6794 7.91797 24.6382 7.98935C24.5969 8.06073 24.5395 8.12138 24.4704 8.16636L18.7174 11.4923C18.644 11.5295 18.5628 11.5489 18.4805 11.5489C18.3982 11.5489 18.3171 11.5295 18.2437 11.4923L16.9385 10.7381C16.8693 10.6932 16.8117 10.6326 16.7705 10.5612C16.7292 10.4898 16.7055 10.4097 16.7012 10.3273V7.78882C16.7057 7.70643 16.7297 7.62628 16.7711 7.55489C16.8125 7.48351 16.8701 7.42291 16.9394 7.37802Z"
    fill="#FFC100" />
  <path opacity="0.4"
    d="M24.708 5.18314C24.6919 5.06089 24.5921 5.01594 24.4725 5.08516L18.7214 8.4075C18.6506 8.4517 18.5926 8.51369 18.5533 8.58728L16.7734 7.56073C16.8132 7.48741 16.871 7.4255 16.9415 7.38095L22.6945 4.05951C22.7679 4.02231 22.8491 4.00293 22.9314 4.00293C23.0137 4.00293 23.0948 4.02231 23.1682 4.05951L24.4725 4.81189C24.5361 4.85329 24.59 4.90786 24.6306 4.97191C24.6713 5.03596 24.6977 5.108 24.708 5.18314Z"
    fill="white" />
  <path opacity="0.15"
    d="M18.6797 11.5059H18.6743H18.6599L18.6446 11.5122C18.6372 11.5156 18.6293 11.5177 18.6212 11.5185L18.5934 11.5257H18.5736C18.5602 11.5283 18.5467 11.5301 18.5331 11.5311C18.4335 11.5429 18.3327 11.5244 18.2437 11.4781L16.9385 10.7248C16.8694 10.6798 16.8119 10.6192 16.7707 10.5478C16.7294 10.4764 16.7056 10.3963 16.7012 10.314V7.78897C16.7038 7.70669 16.7276 7.62649 16.7704 7.55615L18.5502 8.58719C18.5069 8.65766 18.4827 8.73822 18.4801 8.82091V11.3549C18.4801 11.4628 18.534 11.5248 18.6113 11.5248C18.6227 11.5266 18.6342 11.5266 18.6455 11.5248C18.6575 11.5198 18.669 11.5134 18.6797 11.5059Z"
    fill="black" />
  <path opacity="0.15"
    d="M21.4622 28.1832L19.6833 27.1558L15.7964 18.9982C15.7657 18.9275 15.7486 18.8515 15.7461 18.7744L17.5259 19.801C17.5279 19.8787 17.545 19.9554 17.5763 20.0266L21.4622 28.1832Z"
    fill="black" />
  <path opacity="0.15"
    d="M21.729 17.3605V28.0268L21.4593 27.8713V17.516C21.0997 17.6391 20.8301 17.3793 20.8301 16.8769C20.8301 16.8652 20.8301 16.8544 20.8301 16.8418L21.729 17.3605Z"
    fill="black" />
  <path
    d="M29.9503 14.2933C29.9503 14.0029 29.7471 13.8861 29.4964 14.0308C29.3641 14.117 29.254 14.2331 29.175 14.3697C29.0959 14.5064 29.0502 14.6597 29.0415 14.8174C29.0415 15.052 29.1763 15.1715 29.3606 15.132C29.1044 20.4903 25.3533 26.8042 20.7779 29.4461C18.5046 30.7585 16.3733 30.9742 14.7768 30.0528C13.2694 29.1818 12.4002 27.3903 12.3103 24.983C12.5031 24.8044 12.6191 24.5578 12.6339 24.2954C12.6339 24.0059 12.4307 23.8882 12.1844 24.0329C12.0522 24.1192 11.9421 24.2355 11.8632 24.3723C11.7844 24.5091 11.7389 24.6626 11.7305 24.8203C11.7305 25.0675 11.8788 25.188 12.0783 25.1277C12.2006 27.5548 13.1058 29.3652 14.66 30.2623C15.3655 30.6623 16.1646 30.8676 16.9756 30.8573C18.1828 30.8573 19.5194 30.4537 20.9029 29.6555C25.5825 26.9534 29.4119 20.4616 29.6114 14.998C29.8133 14.8173 29.9352 14.5638 29.9503 14.2933Z"
    fill="url(#paint0_linear_2390_31317)" />
  <path
    d="M29.4969 24.0481C29.2732 24.1947 29.1166 24.4237 29.061 24.6854L12.6111 34.1823C12.5527 34.0025 12.3828 33.9477 12.1805 34.0645C12.0482 34.1508 11.9382 34.2671 11.8593 34.4039C11.7805 34.5407 11.735 34.6942 11.7266 34.8519C11.7266 35.1414 11.9297 35.2591 12.1805 35.1144C12.2943 35.0394 12.3919 34.9423 12.4677 34.829C12.5435 34.7157 12.5959 34.5885 12.6219 34.4546L29.061 24.9658C29.114 25.1573 29.2875 25.2202 29.4969 25.0998C29.6292 25.0134 29.7391 24.8971 29.818 24.7603C29.8969 24.6235 29.9424 24.47 29.9509 24.3123C29.9509 24.0229 29.7495 23.9051 29.4969 24.0481Z"
    fill="url(#paint1_linear_2390_31317)" />
  <path
    d="M12.818 24.5506C12.818 24.6784 12.7801 24.8034 12.7091 24.9097C12.6381 25.016 12.5371 25.0988 12.419 25.1477C12.3009 25.1966 12.171 25.2094 12.0456 25.1845C11.9202 25.1596 11.8051 25.098 11.7147 25.0076C11.6243 24.9172 11.5627 24.8021 11.5378 24.6767C11.5129 24.5513 11.5257 24.4214 11.5746 24.3033C11.6235 24.1852 11.7063 24.0842 11.8126 24.0132C11.9189 23.9422 12.0439 23.9043 12.1717 23.9043C12.2566 23.9042 12.3407 23.9208 12.4192 23.9533C12.4976 23.9857 12.5689 24.0333 12.629 24.0933C12.689 24.1534 12.7366 24.2247 12.7691 24.3031C12.8015 24.3816 12.8181 24.4657 12.818 24.5506Z"
    fill="url(#paint2_linear_2390_31317)" />
  <path
    d="M12.1463 35.2252C12.5033 35.2252 12.7926 34.9359 12.7926 34.5789C12.7926 34.222 12.5033 33.9326 12.1463 33.9326C11.7894 33.9326 11.5 34.222 11.5 34.5789C11.5 34.9359 11.7894 35.2252 12.1463 35.2252Z"
    fill="url(#paint3_linear_2390_31317)" />
  <path
    d="M30.1793 24.5921C30.1793 24.7199 30.1414 24.8449 30.0704 24.9512C29.9994 25.0575 29.8985 25.1403 29.7804 25.1892C29.6623 25.2381 29.5323 25.2509 29.4069 25.226C29.2816 25.2011 29.1664 25.1395 29.076 25.0491C28.9856 24.9587 28.9241 24.8436 28.8991 24.7182C28.8742 24.5928 28.887 24.4629 28.9359 24.3448C28.9848 24.2267 29.0677 24.1257 29.174 24.0547C29.2802 23.9837 29.4052 23.9458 29.533 23.9458C29.7044 23.9458 29.8688 24.0139 29.99 24.1351C30.1112 24.2563 30.1793 24.4207 30.1793 24.5921Z"
    fill="url(#paint4_linear_2390_31317)" />
  <path
    d="M30.1207 14.5423C30.1207 14.6701 30.0828 14.7951 30.0118 14.9014C29.9408 15.0077 29.8399 15.0905 29.7218 15.1394C29.6037 15.1883 29.4737 15.2011 29.3483 15.1762C29.223 15.1513 29.1078 15.0897 29.0174 14.9993C28.927 14.9089 28.8655 14.7938 28.8405 14.6684C28.8156 14.543 28.8284 14.4131 28.8773 14.295C28.9262 14.1769 29.0091 14.0759 29.1154 14.0049C29.2216 13.9339 29.3466 13.896 29.4744 13.896C29.6458 13.896 29.8102 13.9641 29.9314 14.0853C30.0527 14.2065 30.1207 14.3709 30.1207 14.5423Z"
    fill="url(#paint5_linear_2390_31317)" />
  <defs>
    <linearGradient id="paint0_linear_2390_31317" x1="20.8404" y1="13.9687" x2="20.8404"
      y2="30.8577" gradientUnits="userSpaceOnUse">
      <stop stop-color="#1E1912" />
      <stop offset="1" stop-color="#EC9A1F" />
    </linearGradient>
    <linearGradient id="paint1_linear_2390_31317" x1="20.8387" y1="23.9873" x2="20.8387"
      y2="35.1763" gradientUnits="userSpaceOnUse">
      <stop stop-color="#1E1912" />
      <stop offset="1" stop-color="#EC9A1F" />
    </linearGradient>
    <linearGradient id="paint2_linear_2390_31317" x1="12.1717" y1="23.9043" x2="12.1717"
      y2="25.1969" gradientUnits="userSpaceOnUse">
      <stop stop-color="#1E1912" />
      <stop offset="1" stop-color="#EC9A1F" />
    </linearGradient>
    <linearGradient id="paint3_linear_2390_31317" x1="12.1463" y1="33.9326" x2="12.1463"
      y2="35.2252" gradientUnits="userSpaceOnUse">
      <stop stop-color="#1E1912" />
      <stop offset="1" stop-color="#EC9A1F" />
    </linearGradient>
    <linearGradient id="paint4_linear_2390_31317" x1="29.533" y1="23.9458" x2="29.533" y2="25.2384"
      gradientUnits="userSpaceOnUse">
      <stop stop-color="#1E1912" />
      <stop offset="1" stop-color="#EC9A1F" />
    </linearGradient>
    <linearGradient id="paint5_linear_2390_31317" x1="29.4744" y1="13.896" x2="29.4744" y2="15.1886"
      gradientUnits="userSpaceOnUse">
      <stop stop-color="#1E1912" />
      <stop offset="1" stop-color="#EC9A1F" />
    </linearGradient>
  </defs>
</svg>
  