<svg width="41" height="40" viewBox="0 0 41 40" fill="none" xmlns="http://www.w3.org/2000/svg">
  <rect x="0.5" width="40" height="40" rx="8" fill="#F5E8FF" />
  <path
    d="M22.4353 2.44534L21.9165 2.13619C21.8321 2.07958 21.7333 2.04802 21.6317 2.04514C21.5301 2.04226 21.4297 2.06818 21.3422 2.11992L17.6248 4.30119V4.47538C17.6248 5.01328 17.1883 5.70049 16.6504 6.00677L15.478 6.68345C15.0769 6.91508 14.7333 6.87488 14.584 6.61167L14.9669 6.38771L14.5065 6.12545L10.7154 8.34693C10.4884 8.47975 10.3002 8.66975 10.1695 8.89797C10.0389 9.12619 9.97033 9.38467 9.97071 9.64765V32.764C9.97016 32.8587 9.99454 32.9519 10.0414 33.0342C10.0883 33.1165 10.156 33.1851 10.2377 33.233L10.2483 33.2387L10.7536 33.5258V33.2425L10.789 33.2243C13.5551 31.558 19.1418 28.2234 21.2896 26.9418C21.5548 26.7838 21.7743 26.5596 21.9267 26.2911C22.0791 26.0226 22.159 25.7191 22.1587 25.4104V2.72099L22.4353 2.44534Z"
    fill="#EBEBEB" />
  <path
    d="M10.7317 33.5634L10.2129 33.2667C10.1246 33.2142 10.0516 33.1395 10.0012 33.0499C9.95082 32.9604 9.92482 32.8592 9.92581 32.7565V9.65264C9.92628 9.38206 9.99712 9.11627 10.1314 8.88134C10.2656 8.64642 10.4586 8.45045 10.6915 8.31267L14.4826 6.0912H14.5305L14.9918 6.35345V6.43576L14.6501 6.63484C14.7018 6.70587 14.7766 6.75664 14.8617 6.77841C15.0244 6.82148 15.2349 6.77841 15.4532 6.65016L16.6266 5.97347C17.1501 5.67103 17.5761 5.00009 17.5761 4.47846V4.30139L17.6 4.26023L21.3174 2.08088C21.4126 2.02498 21.5217 1.99703 21.6321 2.00025C21.7424 2.00347 21.8497 2.03771 21.9415 2.09906L22.4593 2.40438L22.4688 2.47904L22.2075 2.74033V25.4154C22.207 25.7319 22.1245 26.0429 21.9682 26.3181C21.8119 26.5933 21.587 26.8234 21.3155 26.986C20.0866 27.7192 13.8031 31.4682 10.815 33.2676L10.8025 33.2753V33.5212L10.7317 33.5634ZM10.2598 33.1882L10.7068 33.4399V33.2485L10.7336 33.2054L10.7451 33.1997L10.7652 33.1891C13.7543 31.3888 20.0368 27.6378 21.2667 26.9066C21.524 26.7525 21.7371 26.5345 21.8852 26.2737C22.0332 26.0129 22.1113 25.7182 22.1118 25.4183V2.72023L22.1262 2.68673L22.3569 2.45511L21.8907 2.18042C21.8138 2.12814 21.7235 2.09877 21.6305 2.09572C21.5375 2.09268 21.4455 2.11607 21.3653 2.16319L17.6718 4.32915V4.47559C17.6718 5.02784 17.2238 5.73515 16.6744 6.05387L15.501 6.73056C15.2598 6.87029 15.0225 6.92198 14.8368 6.86838C14.7747 6.85216 14.7166 6.82364 14.6658 6.78451C14.615 6.74538 14.5726 6.69643 14.541 6.64059L14.5583 6.5755L14.8684 6.39461L14.5037 6.18691L10.7365 8.39403C10.5171 8.52311 10.3353 8.70721 10.2089 8.92811C10.0825 9.14902 10.0159 9.39908 10.0158 9.65359V32.7642C10.0151 32.8505 10.0374 32.9355 10.0803 33.0105C10.1231 33.0855 10.1851 33.1478 10.2598 33.191V33.1882Z"
    fill="#EBEBEB" />
  <path
    d="M22.6215 2.85314V25.6814C22.622 25.99 22.5423 26.2934 22.3901 26.5619C22.2379 26.8304 22.0184 27.0547 21.7534 27.2127C19.6056 28.4943 14.0189 31.8289 11.2528 33.4953C11.1703 33.5447 11.0762 33.5714 10.98 33.5726C10.8839 33.5738 10.7891 33.5494 10.7054 33.502C10.6218 33.4546 10.5522 33.3859 10.5037 33.3028C10.4553 33.2198 10.4297 33.1253 10.4297 33.0292V9.91475C10.4296 9.65183 10.4983 9.39346 10.6289 9.16529C10.7595 8.93712 10.9476 8.74707 11.1743 8.61403L14.9645 6.39256V6.539C14.9645 7.0769 15.401 7.26162 15.9389 6.95056L17.1113 6.27388C17.6492 5.96377 18.0847 5.2756 18.0847 4.74249V4.56351L21.8022 2.38415C21.8848 2.33555 21.9788 2.30966 22.0746 2.30909C22.1704 2.30852 22.2647 2.3333 22.3479 2.38091C22.4311 2.42853 22.5002 2.49728 22.5482 2.58021C22.5963 2.66314 22.6215 2.7573 22.6215 2.85314Z"
    fill="#FAFAFA" />
  <path
    d="M22.572 2.85297V24.7585C22.572 25.1414 22.6121 25.5596 22.5519 25.9434C22.4648 26.5024 22.1202 26.9312 21.6435 27.2155L20.808 27.7141L18.5635 29.0541C16.8273 30.0916 15.0918 31.1297 13.3568 32.1685L12.2169 32.8529C11.879 33.0558 11.5469 33.2922 11.1918 33.4674C11.1154 33.5035 11.031 33.5197 10.9466 33.5145C10.8621 33.5093 10.7804 33.4829 10.709 33.4376C10.6375 33.3923 10.5787 33.3297 10.5379 33.2556C10.4972 33.1815 10.4758 33.0983 10.4759 33.0137C10.4759 32.9773 10.4759 32.94 10.4759 32.9027V9.96723C10.4701 9.70159 10.5349 9.43916 10.6637 9.20676C10.7925 8.97437 10.9807 8.78033 11.209 8.6445C12.1662 8.07022 13.1309 7.51797 14.0919 6.95518L14.9877 6.42972L14.916 6.38857C14.916 6.56946 14.916 6.7561 15.0117 6.91498C15.0633 6.99279 15.1351 7.05515 15.2194 7.09543C15.3036 7.13571 15.3972 7.1524 15.4902 7.14373C15.8051 7.12555 16.0951 6.90924 16.3612 6.76089C16.6273 6.61253 16.8761 6.46801 17.1269 6.31678C17.6052 6.02891 17.951 5.56445 18.0898 5.02372C18.1115 4.92951 18.123 4.83325 18.1242 4.73658C18.129 4.69556 18.129 4.65413 18.1242 4.61311C18.1137 4.5643 18.1415 4.57674 18.1041 4.60737C18.1434 4.58029 18.1846 4.55629 18.2276 4.53559L18.9062 4.13743L20.9094 2.96304L21.6971 2.50171C21.7373 2.47778 21.7775 2.4529 21.8187 2.43089C21.8941 2.38821 21.9793 2.36588 22.066 2.3661C22.1527 2.36632 22.2378 2.38908 22.313 2.43213C22.3882 2.47519 22.4509 2.53707 22.495 2.61169C22.539 2.68631 22.5629 2.77111 22.5643 2.85776C22.5643 2.91902 22.66 2.91902 22.66 2.85776C22.6579 2.75447 22.6292 2.65348 22.5765 2.56462C22.5238 2.47575 22.449 2.40205 22.3594 2.35068C22.2697 2.29931 22.1683 2.27203 22.065 2.27149C21.9617 2.27096 21.86 2.29718 21.7699 2.34762C21.6455 2.41557 21.5249 2.49214 21.4024 2.56392L19.5197 3.66748L18.5999 4.20442C18.4315 4.30014 18.2467 4.39585 18.0888 4.504C18.0352 4.54229 18.0343 4.56334 18.0343 4.63609C18.038 4.89798 17.9779 5.15684 17.8591 5.39029C17.6495 5.786 17.327 6.11049 16.9326 6.32253C16.6053 6.51395 16.2779 6.70537 15.9506 6.88914C15.7506 7.00304 15.4883 7.12076 15.2596 7.01644C15.0136 6.90445 15.0117 6.62498 15.0117 6.39335C15.0116 6.38498 15.0094 6.37676 15.0052 6.36953C15.0009 6.36229 14.9949 6.35629 14.9876 6.35212C14.9804 6.34796 14.9721 6.34577 14.9637 6.34579C14.9554 6.3458 14.9471 6.34801 14.9399 6.3522L12.1642 7.9793C11.8264 8.17742 11.4857 8.37076 11.1507 8.57271C10.9131 8.71743 10.7175 8.92171 10.5832 9.1653C10.4489 9.4089 10.3805 9.68336 10.385 9.96149C10.385 10.4209 10.385 10.8794 10.385 11.3388V32.9457C10.385 32.9716 10.385 32.9974 10.385 33.0223C10.386 33.1063 10.4047 33.1892 10.4398 33.2656C10.475 33.3419 10.5258 33.41 10.589 33.4654C10.6522 33.5209 10.7263 33.5624 10.8066 33.5873C10.8869 33.6122 10.9715 33.6199 11.0549 33.61C11.2464 33.5851 11.4206 33.4482 11.5842 33.3496L12.0867 33.0472L13.2353 32.3561C14.1024 31.8367 14.9699 31.3173 15.8377 30.7979C17.4801 29.8115 19.125 28.8279 20.7726 27.8472C21.4426 27.4452 22.2542 27.1054 22.5499 26.3225C22.6389 26.0618 22.6789 25.787 22.6677 25.5118V2.85297C22.6677 2.84028 22.6626 2.82811 22.6536 2.81913C22.6447 2.81016 22.6325 2.80512 22.6198 2.80512C22.6071 2.80512 22.5949 2.81016 22.586 2.81913C22.577 2.82811 22.572 2.84028 22.572 2.85297Z"
    fill="#EBEBEB" />
  <path
    d="M13.1106 10.9162C13.3728 10.46 13.3717 9.96744 13.1082 9.816C12.8447 9.66456 12.4186 9.91161 12.1564 10.3678C11.8942 10.824 11.8953 11.3166 12.1588 11.4681C12.4223 11.6195 12.8484 11.3724 13.1106 10.9162Z"
    fill="url(#paint0_linear_2390_31464)" />
  <path
    d="M13.8874 9.75121C13.8662 9.75136 13.8456 9.74447 13.8287 9.73162C13.8119 9.71878 13.7997 9.7007 13.7943 9.68023C13.7888 9.65975 13.7903 9.63804 13.7985 9.6185C13.8067 9.59895 13.8211 9.58268 13.8395 9.57223L16.9301 7.78816C16.9522 7.77547 16.9784 7.77207 17.003 7.77871C17.0276 7.78535 17.0485 7.80149 17.0612 7.82358C17.0739 7.84566 17.0773 7.87188 17.0707 7.89647C17.064 7.92106 17.0479 7.94201 17.0258 7.9547L13.9353 9.73877C13.9207 9.74704 13.9042 9.75133 13.8874 9.75121Z"
    fill="url(#paint1_linear_2390_31464)" />
  <path
    d="M13.8874 10.3362C13.8662 10.3363 13.8456 10.3294 13.8287 10.3166C13.8119 10.3037 13.7997 10.2856 13.7943 10.2652C13.7888 10.2447 13.7903 10.223 13.7985 10.2034C13.8067 10.1839 13.8211 10.1676 13.8395 10.1572L15.7346 9.06319C15.7456 9.05686 15.7576 9.05275 15.7701 9.05111C15.7827 9.04946 15.7954 9.05031 15.8076 9.0536C15.8198 9.0569 15.8312 9.06257 15.8412 9.07029C15.8511 9.07801 15.8595 9.08763 15.8658 9.0986C15.8782 9.12058 15.8815 9.1466 15.8749 9.17098C15.8682 9.19537 15.8522 9.21614 15.8303 9.22877L13.9353 10.3237C13.9207 10.332 13.9042 10.3363 13.8874 10.3362Z"
    fill="url(#paint2_linear_2390_31464)" />
  <path
    d="M21.2439 14.8048L12.2231 20.0125C12.0479 20.1139 11.9062 20.0067 11.9062 19.7732V13.1241C11.9081 13.0054 11.9377 12.8888 11.9927 12.7835C12.0477 12.6783 12.1266 12.5875 12.2231 12.5182L21.2439 7.30961C21.419 7.2139 21.5617 7.31631 21.5617 7.54985V14.1961C21.5602 14.3154 21.5307 14.4326 21.4754 14.5384C21.4202 14.6441 21.3409 14.7354 21.2439 14.8048Z"
    fill="#E0E0E0" />
  <path
    d="M12.8333 13.2898C12.8166 13.2897 12.8002 13.2853 12.7858 13.2769C12.7713 13.2685 12.7594 13.2564 12.751 13.242C12.7384 13.2201 12.735 13.1942 12.7415 13.1698C12.7479 13.1454 12.7637 13.1246 12.7855 13.1118L20.5831 8.61336C20.6052 8.60067 20.6314 8.59727 20.656 8.60391C20.6806 8.61055 20.7015 8.62669 20.7142 8.64877C20.7269 8.67086 20.7303 8.69708 20.7237 8.72167C20.717 8.74626 20.7009 8.76721 20.6788 8.7799L12.8812 13.2784C12.8665 13.2863 12.85 13.2902 12.8333 13.2898Z"
    fill="white" />
  <path
    d="M12.8327 14.1962C12.8115 14.1963 12.7909 14.1894 12.774 14.1766C12.7572 14.1637 12.7451 14.1456 12.7396 14.1252C12.7341 14.1047 12.7356 14.083 12.7438 14.0634C12.752 14.0439 12.7664 14.0276 12.7849 14.0172L20.5825 9.51872C20.6044 9.50727 20.6298 9.50472 20.6535 9.5116C20.6772 9.51848 20.6974 9.53425 20.7097 9.55563C20.7221 9.577 20.7257 9.60232 20.7198 9.6263C20.7139 9.65027 20.699 9.67105 20.6782 9.6843L12.8806 14.1828C12.8661 14.1914 12.8496 14.196 12.8327 14.1962Z"
    fill="white" />
  <path
    d="M12.8327 15.1023C12.8115 15.1024 12.7909 15.0955 12.774 15.0827C12.7572 15.0698 12.7451 15.0518 12.7396 15.0313C12.7341 15.0108 12.7356 14.9891 12.7438 14.9695C12.752 14.95 12.7664 14.9337 12.7849 14.9233L20.5825 10.4248C20.6044 10.4123 20.6303 10.4088 20.6547 10.4153C20.679 10.4217 20.6999 10.4376 20.7127 10.4593C20.719 10.4702 20.7232 10.4822 20.7249 10.4946C20.7266 10.5071 20.7259 10.5198 20.7227 10.532C20.7195 10.5442 20.7139 10.5556 20.7062 10.5656C20.6986 10.5757 20.6891 10.5841 20.6782 10.5904L12.8806 15.0889C12.8661 15.0975 12.8496 15.1021 12.8327 15.1023Z"
    fill="white" />
  <path
    d="M12.8327 16.0078C12.8115 16.0079 12.7909 16.001 12.774 15.9882C12.7572 15.9754 12.7451 15.9573 12.7396 15.9368C12.7341 15.9163 12.7356 15.8946 12.7438 15.8751C12.752 15.8555 12.7664 15.8393 12.7849 15.8288L20.5825 11.3304C20.6045 11.3179 20.6305 11.3146 20.6549 11.3212C20.6793 11.3279 20.7 11.3439 20.7127 11.3658C20.7252 11.3876 20.7286 11.4136 20.7222 11.4379C20.7157 11.4623 20.6999 11.4831 20.6782 11.4959L12.8806 15.9944C12.8661 16.003 12.8496 16.0076 12.8327 16.0078Z"
    fill="white" />
  <path
    d="M12.8327 16.9143C12.8115 16.9144 12.7909 16.9075 12.774 16.8947C12.7572 16.8818 12.7451 16.8638 12.7396 16.8433C12.7341 16.8228 12.7356 16.8011 12.7438 16.7816C12.752 16.762 12.7664 16.7457 12.7849 16.7353L20.5825 12.2368C20.6044 12.2243 20.6303 12.2209 20.6547 12.2273C20.679 12.2338 20.6999 12.2496 20.7127 12.2713C20.719 12.2822 20.7232 12.2942 20.7249 12.3067C20.7266 12.3191 20.7259 12.3318 20.7227 12.344C20.7195 12.3562 20.7139 12.3676 20.7062 12.3776C20.6986 12.3877 20.6891 12.3961 20.6782 12.4024L12.8806 16.9009C12.8661 16.9095 12.8496 16.9141 12.8327 16.9143Z"
    fill="white" />
  <path
    d="M12.833 17.8198C12.8121 17.8196 12.7919 17.8126 12.7754 17.7998C12.7589 17.787 12.747 17.7691 12.7416 17.749C12.7361 17.7288 12.7375 17.7074 12.7453 17.688C12.7532 17.6687 12.7672 17.6525 12.7852 17.6418L20.5828 13.1433C20.6048 13.1309 20.6308 13.1276 20.6552 13.1342C20.6796 13.1409 20.7003 13.1569 20.713 13.1788C20.7255 13.2006 20.729 13.2265 20.7225 13.2509C20.716 13.2753 20.7002 13.2961 20.6785 13.3089L12.8809 17.8074C12.8663 17.8156 12.8498 17.8199 12.833 17.8198Z"
    fill="white" />
  <path
    d="M12.8327 18.7258C12.8115 18.7259 12.7909 18.7191 12.774 18.7062C12.7572 18.6934 12.7451 18.6753 12.7396 18.6548C12.7341 18.6343 12.7356 18.6126 12.7438 18.5931C12.752 18.5735 12.7664 18.5573 12.7849 18.5468L20.5825 14.0484C20.6044 14.0358 20.6303 14.0324 20.6547 14.0388C20.679 14.0453 20.6999 14.0611 20.7127 14.0828C20.719 14.0937 20.7232 14.1057 20.7249 14.1182C20.7266 14.1307 20.7259 14.1434 20.7227 14.1555C20.7195 14.1677 20.7139 14.1791 20.7062 14.1892C20.6986 14.1992 20.6891 14.2076 20.6782 14.2139L12.8806 18.7124C12.8661 18.721 12.8496 18.7256 12.8327 18.7258Z"
    fill="white" />
  <path
    d="M13.2462 21.2787C13.2336 21.5115 13.1664 21.7381 13.05 21.9401C12.9337 22.1422 12.7713 22.314 12.5762 22.4416C12.2049 22.6551 11.9062 22.4818 11.9062 22.054C11.9185 21.8211 11.9856 21.5944 12.102 21.3923C12.2184 21.1903 12.3809 21.0185 12.5762 20.8911C12.9457 20.6738 13.2462 20.8471 13.2462 21.2787Z"
    fill="url(#paint3_linear_2390_31464)" />
  <path opacity="0.6"
    d="M13.1106 10.9162C13.3728 10.46 13.3717 9.96744 13.1082 9.816C12.8447 9.66456 12.4186 9.91161 12.1564 10.3678C11.8942 10.824 11.8953 11.3166 12.1588 11.4681C12.4223 11.6195 12.8484 11.3724 13.1106 10.9162Z"
    fill="white" />
  <path opacity="0.6"
    d="M13.2462 21.2787C13.2336 21.5115 13.1664 21.7381 13.05 21.9401C12.9337 22.1422 12.7713 22.314 12.5762 22.4416C12.2049 22.6551 11.9062 22.4818 11.9062 22.054C11.9185 21.8211 11.9856 21.5944 12.102 21.3923C12.2184 21.1903 12.3809 21.0185 12.5762 20.8911C12.9457 20.6738 13.2462 20.8471 13.2462 21.2787Z"
    fill="white" />
  <path
    d="M13.8874 20.7171C13.8662 20.7173 13.8456 20.7104 13.8287 20.6975C13.8119 20.6847 13.7997 20.6666 13.7943 20.6461C13.7888 20.6257 13.7903 20.6039 13.7985 20.5844C13.8067 20.5649 13.8211 20.5486 13.8395 20.5381L16.9301 18.7541C16.9519 18.7426 16.9774 18.7401 17.0011 18.747C17.0248 18.7538 17.0449 18.7696 17.0573 18.791C17.0697 18.8124 17.0733 18.8377 17.0674 18.8616C17.0615 18.8856 17.0466 18.9064 17.0258 18.9196L13.9353 20.7047C13.9207 20.7129 13.9042 20.7172 13.8874 20.7171Z"
    fill="url(#paint4_linear_2390_31464)" />
  <path
    d="M13.8874 21.3015C13.8662 21.3016 13.8456 21.2947 13.8287 21.2819C13.8119 21.2691 13.7997 21.251 13.7943 21.2305C13.7888 21.21 13.7903 21.1883 13.7985 21.1688C13.8067 21.1492 13.8211 21.133 13.8395 21.1225L15.7346 20.0285C15.7456 20.0222 15.7576 20.0181 15.7701 20.0164C15.7827 20.0148 15.7954 20.0156 15.8076 20.0189C15.8198 20.0222 15.8312 20.0279 15.8412 20.0356C15.8511 20.0433 15.8595 20.053 15.8658 20.0639C15.8782 20.0859 15.8815 20.1119 15.8749 20.1363C15.8682 20.1607 15.8522 20.1815 15.8303 20.1941L13.9353 21.289C13.9207 21.2973 13.9042 21.3016 13.8874 21.3015Z"
    fill="url(#paint5_linear_2390_31464)" />
  <path
    d="M21.2439 25.7707L12.2231 30.9793C12.0479 31.075 11.9062 30.9726 11.9062 30.7391V24.09C11.9081 23.9713 11.9377 23.8546 11.9927 23.7494C12.0477 23.6442 12.1266 23.5534 12.2231 23.4841L21.2439 18.2755C21.419 18.175 21.5617 18.2822 21.5617 18.5157V25.1648C21.5597 25.2836 21.53 25.4003 21.4748 25.5055C21.4196 25.6108 21.3405 25.7016 21.2439 25.7707Z"
    fill="#E0E0E0" />
  <path
    d="M12.8333 24.2552C12.8166 24.2551 12.8002 24.2506 12.7858 24.2422C12.7713 24.2338 12.7594 24.2218 12.751 24.2073C12.7384 24.1855 12.735 24.1595 12.7415 24.1351C12.7479 24.1108 12.7637 24.0899 12.7855 24.0771L20.5831 19.5787C20.6052 19.566 20.6314 19.5626 20.656 19.5692C20.6806 19.5759 20.7015 19.592 20.7142 19.6141C20.7269 19.6362 20.7303 19.6624 20.7237 19.687C20.717 19.7116 20.7009 19.7325 20.6788 19.7452L12.8812 24.2437C12.8665 24.2516 12.85 24.2556 12.8333 24.2552Z"
    fill="white" />
  <path
    d="M12.8327 25.162C12.8115 25.1621 12.7909 25.1552 12.774 25.1424C12.7572 25.1295 12.7451 25.1115 12.7396 25.091C12.7341 25.0705 12.7356 25.0488 12.7438 25.0293C12.752 25.0097 12.7664 24.9934 12.7849 24.983L20.5825 20.4845C20.6044 20.4731 20.6298 20.4705 20.6535 20.4774C20.6772 20.4843 20.6974 20.5001 20.7097 20.5214C20.7221 20.5428 20.7257 20.5681 20.7198 20.5921C20.7139 20.6161 20.699 20.6369 20.6782 20.6501L12.8806 25.1486C12.8661 25.1572 12.8496 25.1618 12.8327 25.162Z"
    fill="white" />
  <path
    d="M12.8327 26.0642C12.8115 26.0643 12.7909 26.0574 12.774 26.0446C12.7572 26.0317 12.7451 26.0137 12.7396 25.9932C12.7341 25.9727 12.7356 25.951 12.7438 25.9315C12.752 25.9119 12.7664 25.8956 12.7849 25.8852L20.5825 21.3867C20.6044 21.3742 20.6303 21.3708 20.6547 21.3772C20.679 21.3837 20.6999 21.3995 20.7127 21.4212C20.719 21.4321 20.7232 21.4441 20.7249 21.4566C20.7266 21.469 20.7259 21.4817 20.7227 21.4939C20.7195 21.5061 20.7139 21.5175 20.7062 21.5275C20.6986 21.5376 20.6891 21.546 20.6782 21.5523L12.8806 26.0508C12.8661 26.0594 12.8496 26.064 12.8327 26.0642Z"
    fill="white" />
  <path
    d="M12.8327 26.9736C12.8115 26.9738 12.7909 26.9669 12.774 26.954C12.7572 26.9412 12.7451 26.9231 12.7396 26.9026C12.7341 26.8821 12.7356 26.8604 12.7438 26.8409C12.752 26.8213 12.7664 26.8051 12.7849 26.7946L20.5825 22.2962C20.6045 22.2837 20.6305 22.2804 20.6549 22.287C20.6793 22.2937 20.7 22.3097 20.7127 22.3316C20.7252 22.3534 20.7286 22.3794 20.7222 22.4038C20.7157 22.4281 20.6999 22.449 20.6782 22.4618L12.8806 26.9602C12.8661 26.9688 12.8496 26.9734 12.8327 26.9736Z"
    fill="white" />
  <path
    d="M12.8327 27.8825C12.8115 27.8827 12.7909 27.8758 12.774 27.863C12.7572 27.8501 12.7451 27.832 12.7396 27.8116C12.7341 27.7911 12.7356 27.7694 12.7438 27.7498C12.752 27.7303 12.7664 27.714 12.7849 27.7036L20.5825 23.2051C20.6044 23.1925 20.6303 23.1891 20.6547 23.1956C20.679 23.202 20.6999 23.2178 20.7127 23.2396C20.719 23.2504 20.7232 23.2624 20.7249 23.2749C20.7266 23.2874 20.7259 23.3001 20.7227 23.3123C20.7195 23.3245 20.7139 23.3359 20.7062 23.3459C20.6986 23.3559 20.6891 23.3644 20.6782 23.3707L12.8806 27.8691C12.8661 27.8777 12.8496 27.8824 12.8327 27.8825Z"
    fill="white" />
  <path
    d="M12.833 28.7852C12.8121 28.7849 12.7919 28.7779 12.7754 28.7651C12.7589 28.7523 12.747 28.7345 12.7416 28.7143C12.7361 28.6941 12.7375 28.6727 12.7453 28.6534C12.7532 28.634 12.7672 28.6178 12.7852 28.6071L20.5828 24.1087C20.6048 24.0962 20.6308 24.0929 20.6552 24.0995C20.6796 24.1062 20.7003 24.1222 20.713 24.1441C20.7255 24.1659 20.729 24.1919 20.7225 24.2163C20.716 24.2406 20.7002 24.2615 20.6785 24.2743L12.8809 28.7727C12.8663 28.781 12.8498 28.7853 12.833 28.7852Z"
    fill="white" />
  <path
    d="M12.8327 29.6916C12.8115 29.6918 12.7909 29.6849 12.774 29.672C12.7572 29.6592 12.7451 29.6411 12.7396 29.6206C12.7341 29.6002 12.7356 29.5784 12.7438 29.5589C12.752 29.5394 12.7664 29.5231 12.7849 29.5126L20.5825 25.0142C20.6044 25.0016 20.6303 24.9982 20.6547 25.0047C20.679 25.0111 20.6999 25.0269 20.7127 25.0486C20.719 25.0595 20.7232 25.0715 20.7249 25.084C20.7266 25.0965 20.7259 25.1092 20.7227 25.1214C20.7195 25.1335 20.7139 25.145 20.7062 25.155C20.6986 25.165 20.6891 25.1734 20.6782 25.1798L12.8806 29.6782C12.8661 29.6868 12.8496 29.6914 12.8327 29.6916Z"
    fill="white" />
  <path
    d="M24.714 28.082L21.2378 30.0919C20.9851 30.2384 20.7793 30.0833 20.7793 29.7454C20.7793 29.4085 20.9851 29.0161 21.2378 28.8697L24.714 26.8597C24.9676 26.7133 25.1725 26.8693 25.1725 27.2062C25.1725 27.5441 24.9676 27.9365 24.714 28.082Z"
    fill="url(#paint6_linear_2390_31464)" />
  <path opacity="0.6"
    d="M24.714 28.082L21.2378 30.0919C20.9851 30.2384 20.7793 30.0833 20.7793 29.7454C20.7793 29.4085 20.9851 29.0161 21.2378 28.8697L24.714 26.8597C24.9676 26.7133 25.1725 26.8693 25.1725 27.2062C25.1725 27.5441 24.9676 27.9365 24.714 28.082Z"
    fill="white" />
  <path
    d="M30.0505 6.82594L29.5251 6.51679C29.4413 6.46287 29.3442 6.43341 29.2446 6.43172C29.145 6.43003 29.0469 6.45617 28.9613 6.50722L25.2439 8.68562V8.85981C25.2439 9.39771 24.8074 10.0859 24.2705 10.396L23.099 11.0736C22.698 11.3053 22.3543 11.2651 22.205 11.0018L22.5879 10.7779L22.1275 10.5156L18.3325 12.7371C18.1056 12.8699 17.9174 13.0599 17.7867 13.2881C17.6561 13.5164 17.5875 13.7748 17.5879 14.0378V37.1465C17.5874 37.2411 17.6118 37.3341 17.6587 37.4163C17.7056 37.4984 17.7733 37.5668 17.8549 37.6145L17.8655 37.6203L18.3708 37.9074V37.6308L18.4062 37.6126C21.1723 35.9463 26.759 32.6117 28.9068 31.3301C29.172 31.1721 29.3915 30.9478 29.5439 30.6793C29.6963 30.4109 29.7762 30.1074 29.7758 29.7987V7.09776L30.0505 6.82594Z"
    fill="#EBEBEB" />
  <path
    d="M18.3509 37.949L17.834 37.6619V37.6561C17.7457 37.6039 17.6727 37.5294 17.6223 37.44C17.5719 37.3506 17.5459 37.2496 17.5469 37.147V14.0383C17.5474 13.7677 17.6182 13.5019 17.7525 13.267C17.8867 13.0321 18.0797 12.8361 18.3126 12.6983L22.1037 10.4769H22.1516L22.6129 10.7391V10.8214L22.2741 11.0195C22.3258 11.0906 22.4006 11.1413 22.4856 11.1631C22.6483 11.2071 22.8589 11.1631 23.0771 11.0349L24.2467 10.3563C24.7703 10.0538 25.1962 9.38287 25.1962 8.86124V8.68705L25.2201 8.64589L28.9366 6.46653C29.03 6.41174 29.1367 6.38382 29.245 6.38585C29.3532 6.38787 29.4588 6.41977 29.5501 6.47802L30.0737 6.78621L30.0832 6.86183L29.8267 7.11833V29.7972C29.827 30.1142 29.7451 30.4258 29.5891 30.7018C29.4332 30.9777 29.2083 31.2085 28.9366 31.3717C27.7134 32.102 21.4558 35.8347 18.4361 37.6542L18.4236 37.6609V37.9079L18.3509 37.949ZM17.879 37.5738L18.326 37.8256V37.6341L18.3528 37.5911L18.3652 37.5853L18.3853 37.5748C21.405 35.7563 27.6617 32.0235 28.8859 31.2923C29.1442 31.1376 29.3578 30.9185 29.506 30.6564C29.6541 30.3944 29.7317 30.0983 29.731 29.7972V7.09823L29.7454 7.06473L29.9722 6.8379L29.5004 6.55938C29.4239 6.50964 29.335 6.48238 29.2438 6.48069C29.1526 6.47899 29.0627 6.50294 28.9845 6.5498L25.2909 8.71481V8.86124C25.2909 9.4135 24.843 10.1208 24.2936 10.4395L23.1202 11.1153C22.88 11.255 22.6416 11.3067 22.456 11.2531C22.3942 11.2369 22.3363 11.2084 22.2856 11.1695C22.235 11.1305 22.1927 11.0818 22.1612 11.0262L22.1784 10.9612L22.4875 10.7793L22.1229 10.5716L18.3557 12.7787C18.1365 12.908 17.9548 13.0922 17.8284 13.313C17.7021 13.5339 17.6354 13.7838 17.635 14.0383V37.147C17.6346 37.2333 17.657 37.3181 17.6998 37.3931C17.7427 37.468 17.8045 37.5303 17.879 37.5738Z"
    fill="#EBEBEB" />
  <path
    d="M30.2396 7.2389V30.0633C30.24 30.372 30.16 30.6755 30.0077 30.944C29.8553 31.2124 29.6357 31.4367 29.3705 31.5947C27.2228 32.8743 21.6361 36.2099 18.87 37.8753C18.7875 37.9247 18.6934 37.9514 18.5972 37.9526C18.5011 37.9538 18.4063 37.9294 18.3226 37.882C18.239 37.8347 18.1693 37.7659 18.1209 37.6828C18.0725 37.5998 18.0469 37.5053 18.0469 37.4092V14.3005C18.0467 14.0377 18.1152 13.7794 18.2457 13.5512C18.3761 13.323 18.564 13.133 18.7906 12.9998L22.5817 10.7783V10.9248C22.5817 11.4627 23.0181 11.6474 23.556 11.3363L24.7285 10.6596C25.2664 10.3495 25.7029 9.66136 25.7029 9.12346V8.94927L29.4203 6.77087C29.5028 6.72231 29.5967 6.69642 29.6925 6.69581C29.7883 6.6952 29.8825 6.7199 29.9656 6.7674C30.0488 6.81489 30.1179 6.88351 30.166 6.96631C30.2141 7.0491 30.2395 7.14314 30.2396 7.2389Z"
    fill="#FAFAFA" />
  <path
    d="M30.1921 7.23881V29.1444C30.1921 29.5272 30.2313 29.9464 30.172 30.3293C30.0839 30.8882 29.7393 31.317 29.2627 31.6013L28.4271 32.0999L26.1827 33.4399C24.4452 34.4774 22.7096 35.5156 20.976 36.5544L19.836 37.2387C19.4982 37.4416 19.1661 37.679 18.811 37.8532C18.7346 37.8893 18.6503 37.9055 18.566 37.9004C18.4816 37.8952 18.3999 37.8688 18.3285 37.8237C18.2571 37.7785 18.1983 37.716 18.1574 37.6421C18.1166 37.5681 18.0952 37.485 18.095 37.4005C18.095 37.3631 18.095 37.3258 18.095 37.2894V14.3531C18.0899 14.0881 18.155 13.8264 18.2838 13.5948C18.4126 13.3631 18.6004 13.1697 18.8282 13.0342C19.7853 12.4599 20.7501 11.9086 21.711 11.3448L22.6079 10.8194L22.5351 10.7782C22.5351 10.9591 22.5351 11.1458 22.6308 11.3046C22.6825 11.3825 22.7543 11.4448 22.8385 11.4851C22.9228 11.5254 23.0164 11.5421 23.1094 11.5334C23.4243 11.5152 23.7143 11.2989 23.9804 11.1458C24.2464 10.9926 24.4953 10.8529 24.7461 10.7017C25.2268 10.4157 25.5755 9.95182 25.7166 9.41051C25.7382 9.31626 25.75 9.22004 25.752 9.12337C25.7558 9.08231 25.7558 9.04097 25.752 8.99991C25.7405 8.95109 25.7683 8.96353 25.7309 8.99416C25.7703 8.96729 25.8116 8.9433 25.8544 8.92238L26.533 8.52422L28.5362 7.34983L29.324 6.8885C29.3642 6.86458 29.4044 6.83969 29.4455 6.81768C29.521 6.77506 29.6063 6.75279 29.693 6.75303C29.7796 6.75327 29.8648 6.77602 29.94 6.81905C30.0153 6.86208 30.0781 6.92392 30.1223 6.9985C30.1664 7.07309 30.1905 7.15788 30.1921 7.24455C30.1921 7.30581 30.2878 7.30581 30.2878 7.24455C30.2856 7.14121 30.2568 7.04018 30.204 6.95132C30.1512 6.86246 30.0762 6.78879 29.9865 6.73751C29.8967 6.68622 29.7952 6.65907 29.6919 6.6587C29.5885 6.65832 29.4868 6.68473 29.3967 6.73536C29.2723 6.80236 29.1517 6.87893 29.0292 6.95072L27.1389 8.0581L26.221 8.59696C26.0525 8.69267 25.8678 8.78264 25.7099 8.89654C25.6563 8.93386 25.6563 8.95492 25.6563 9.02766C25.6589 9.28947 25.5978 9.54799 25.4783 9.78091C25.2687 10.1766 24.9462 10.5011 24.5518 10.7131C24.2244 10.9046 23.8971 11.096 23.5698 11.2798C23.3697 11.3946 23.1075 11.5114 22.8787 11.4071C22.6327 11.2951 22.6308 11.0156 22.6308 10.784C22.6308 10.7756 22.6285 10.7674 22.6243 10.7601C22.6201 10.7529 22.614 10.7469 22.6068 10.7427C22.5995 10.7386 22.5913 10.7364 22.5829 10.7364C22.5745 10.7364 22.5663 10.7386 22.559 10.7428L19.7834 12.3699C19.4455 12.568 19.1048 12.7614 18.7698 12.9643C18.5322 13.1087 18.3365 13.3128 18.2022 13.5563C18.0679 13.7997 17.9996 14.0741 18.0041 14.3521C18.0041 14.8115 18.0041 15.2709 18.0041 15.7294V37.3325C18.0041 37.3574 18.0041 37.3832 18.0041 37.4081C18.0051 37.4922 18.0238 37.5751 18.059 37.6514C18.0941 37.7278 18.1449 37.7959 18.2081 37.8513C18.2713 37.9067 18.3455 37.9482 18.4257 37.9731C18.506 37.998 18.5906 38.0057 18.6741 37.9958C18.8655 37.9709 19.0397 37.834 19.2034 37.7355L19.7059 37.434L20.8544 36.742C21.7216 36.2219 22.589 35.7025 23.4568 35.1838C25.1031 34.1999 26.7496 33.2163 28.3965 32.233C29.0665 31.831 29.8781 31.4912 30.1748 30.7083C30.2634 30.4479 30.3034 30.1734 30.2926 29.8986V7.23881C30.2926 7.22548 30.2873 7.2127 30.2778 7.20328C30.2684 7.19385 30.2556 7.18856 30.2423 7.18856C30.229 7.18856 30.2162 7.19385 30.2068 7.20328C30.1974 7.2127 30.1921 7.22548 30.1921 7.23881Z"
    fill="#EBEBEB" />
  <path
    d="M28.655 11.5409L19.6332 16.7495C19.459 16.851 19.3164 16.7428 19.3164 16.5103V15.5694C19.3187 15.4508 19.3485 15.3343 19.4034 15.2292C19.4584 15.124 19.5371 15.0331 19.6332 14.9636L28.655 9.75492C28.8302 9.65921 28.9718 9.76162 28.9718 9.99516V10.935C28.97 11.0538 28.9404 11.1704 28.8854 11.2756C28.8304 11.3808 28.7515 11.4717 28.655 11.5409Z"
    fill="url(#paint7_linear_2390_31464)" />
  <path opacity="0.6"
    d="M28.655 11.5409L19.6332 16.7495C19.459 16.851 19.3164 16.7428 19.3164 16.5103V15.5694C19.3187 15.4508 19.3485 15.3343 19.4034 15.2292C19.4584 15.124 19.5371 15.0331 19.6332 14.9636L28.655 9.75492C28.8302 9.65921 28.9718 9.76162 28.9718 9.99516V10.935C28.97 11.0538 28.9404 11.1704 28.8854 11.2756C28.8304 11.3808 28.7515 11.4717 28.655 11.5409Z"
    fill="white" />
  <path
    d="M27.9323 10.6143C27.9527 10.5959 27.9784 10.5845 28.0057 10.5817C28.033 10.5788 28.0605 10.5846 28.0843 10.5983C28.108 10.612 28.1269 10.6329 28.1381 10.6579C28.1493 10.6829 28.1523 10.7109 28.1467 10.7377C28.1444 10.8127 28.123 10.8858 28.0845 10.9502C28.048 11.0154 27.9956 11.0704 27.9323 11.1101C27.9106 11.1258 27.885 11.1355 27.8583 11.1382C27.8316 11.1409 27.8046 11.1365 27.7801 11.1254C27.6969 11.0766 27.6969 10.9196 27.7801 10.7741C27.8167 10.7089 27.869 10.654 27.9323 10.6143ZM27.9323 10.4851C27.8356 10.545 27.7561 10.6291 27.7017 10.7291C27.5734 10.9502 27.5734 11.1885 27.7017 11.2622C27.7386 11.2794 27.7796 11.2863 27.8201 11.2823C27.8607 11.2782 27.8995 11.2634 27.9323 11.2393C28.0291 11.1793 28.1086 11.0952 28.163 10.9952C28.2912 10.7741 28.2912 10.5358 28.163 10.4621C28.126 10.4449 28.0851 10.438 28.0445 10.442C28.0039 10.4461 27.9652 10.4609 27.9323 10.4851Z"
    fill="white" />
  <path
    d="M28.3952 11.4204C28.3802 11.4202 28.3659 11.4144 28.355 11.4041L28.0439 11.0931C28.0351 11.0822 28.0306 11.0685 28.0313 11.0546C28.032 11.0406 28.0379 11.0274 28.0478 11.0175C28.0577 11.0076 28.0709 11.0018 28.0848 11.0011C28.0988 11.0003 28.1125 11.0048 28.1234 11.0136L28.4344 11.3247C28.4449 11.3353 28.4507 11.3495 28.4507 11.3644C28.4507 11.3793 28.4449 11.3936 28.4344 11.4041C28.4238 11.4142 28.4098 11.42 28.3952 11.4204Z"
    fill="white" />
  <path
    d="M20.4637 18.3336C20.7259 17.8795 20.7258 17.3886 20.4635 17.2371C20.2012 17.0857 19.776 17.331 19.5138 17.7852C19.2516 18.2393 19.2517 18.7302 19.514 18.8816C19.7763 19.0331 20.2015 18.7877 20.4637 18.3336Z"
    fill="url(#paint8_linear_2390_31464)" />
  <path
    d="M21.2989 17.1143C21.282 17.1143 21.2654 17.1099 21.2508 17.1015C21.2362 17.0931 21.224 17.081 21.2156 17.0664C21.2031 17.0444 21.1998 17.0184 21.2065 16.994C21.2131 16.9696 21.2291 16.9489 21.251 16.9362L24.3425 15.1531C24.3534 15.1462 24.3656 15.1415 24.3783 15.1395C24.3911 15.1374 24.4041 15.1379 24.4166 15.1409C24.4292 15.144 24.441 15.1496 24.4513 15.1573C24.4616 15.1651 24.4703 15.1748 24.4767 15.186C24.4832 15.1972 24.4873 15.2095 24.4889 15.2224C24.4904 15.2352 24.4894 15.2482 24.4858 15.2606C24.4822 15.273 24.4761 15.2845 24.4679 15.2945C24.4598 15.3045 24.4497 15.3127 24.4382 15.3187L21.3467 17.1018C21.3321 17.1101 21.3156 17.1144 21.2989 17.1143Z"
    fill="url(#paint9_linear_2390_31464)" />
  <path
    d="M21.2989 17.6988C21.282 17.6989 21.2654 17.6945 21.2508 17.6861C21.2362 17.6777 21.224 17.6656 21.2156 17.651C21.2031 17.629 21.1998 17.603 21.2065 17.5786C21.2131 17.5542 21.2291 17.5334 21.251 17.5208L23.1461 16.4259C23.157 16.4196 23.1691 16.4155 23.1816 16.4139C23.1941 16.4123 23.2068 16.4131 23.219 16.4164C23.2312 16.4197 23.2426 16.4254 23.2526 16.433C23.2626 16.4407 23.271 16.4503 23.2772 16.4613C23.2835 16.4722 23.2876 16.4843 23.2892 16.4968C23.2908 16.5093 23.29 16.522 23.2867 16.5342C23.2834 16.5463 23.2777 16.5578 23.27 16.5677C23.2623 16.5777 23.2528 16.5861 23.2418 16.5924L21.3467 17.6864C21.3321 17.6947 21.3156 17.6989 21.2989 17.6988Z"
    fill="url(#paint10_linear_2390_31464)" />
  <path
    d="M23.2511 22.8256L19.7749 24.8356C19.5222 24.982 19.3164 24.8269 19.3164 24.4891V20.6357C19.3164 20.2979 19.5222 19.9064 19.7749 19.76L23.2511 17.75C23.5048 17.6036 23.7096 17.7586 23.7096 18.0965V21.9489C23.7096 22.2877 23.5048 22.6792 23.2511 22.8256Z"
    fill="url(#paint11_linear_2390_31464)" />
  <path opacity="0.3"
    d="M23.2511 22.8256L19.7749 24.8356C19.5222 24.982 19.3164 24.8269 19.3164 24.4891V20.6357C19.3164 20.2979 19.5222 19.9064 19.7749 19.76L23.2511 17.75C23.5048 17.6036 23.7096 17.7586 23.7096 18.0965V21.9489C23.7096 22.2877 23.5048 22.6792 23.2511 22.8256Z"
    fill="white" />
  <path
    d="M23.4145 21.674L19.6367 23.8552L20.7527 20.9513L21.6361 21.762L22.3157 20.7437L23.4145 21.674Z"
    fill="url(#paint12_linear_2390_31464)" />
  <path
    d="M22.0025 20.2008C22.137 19.9678 22.1369 19.7159 22.0024 19.6382C21.8678 19.5605 21.6496 19.6864 21.5151 19.9194C21.3805 20.1524 21.3806 20.4043 21.5152 20.482C21.6498 20.5597 21.8679 20.4338 22.0025 20.2008Z"
    fill="url(#paint13_linear_2390_31464)" />
  <path
    d="M28.5138 19.8065L25.0366 21.8164C24.7839 21.9629 24.5781 21.8078 24.5781 21.47V17.6166C24.5781 17.2797 24.7839 16.8873 25.0366 16.7409L28.5138 14.7309C28.7665 14.5854 28.9713 14.7405 28.9713 15.0774V18.9279C28.9713 19.2686 28.7665 19.661 28.5138 19.8065Z"
    fill="url(#paint14_linear_2390_31464)" />
  <path opacity="0.3"
    d="M28.5138 19.8065L25.0366 21.8164C24.7839 21.9629 24.5781 21.8078 24.5781 21.47V17.6166C24.5781 17.2797 24.7839 16.8873 25.0366 16.7409L28.5138 14.7309C28.7665 14.5854 28.9713 14.7405 28.9713 15.0774V18.9279C28.9713 19.2686 28.7665 19.661 28.5138 19.8065Z"
    fill="white" />
  <path
    d="M28.6645 18.567L24.8867 20.7483L26.0027 17.8444L26.8861 18.6551L27.5657 17.6367L28.6645 18.567Z"
    fill="url(#paint15_linear_2390_31464)" />
  <path
    d="M27.3532 16.7555C27.3465 16.8751 27.3118 16.9914 27.2519 17.0951C27.1921 17.1989 27.1088 17.2871 27.0086 17.3528C26.8172 17.4619 26.6641 17.3729 26.6641 17.1537C26.6708 17.0341 26.7055 16.9178 26.7653 16.8141C26.8252 16.7104 26.9085 16.6221 27.0086 16.5565C27.1991 16.4464 27.3532 16.5354 27.3532 16.7555Z"
    fill="url(#paint16_linear_2390_31464)" />
  <path
    d="M23.2511 33.5299L19.7749 35.5398C19.5222 35.6862 19.3164 35.5312 19.3164 35.1933C19.3164 34.8555 19.5222 34.464 19.7749 34.3176L23.2511 32.3076C23.5048 32.1612 23.7096 32.3162 23.7096 32.6541C23.7096 32.9929 23.5048 33.3853 23.2511 33.5299Z"
    fill="url(#paint17_linear_2390_31464)" />
  <path
    d="M28.5138 30.4488L25.0366 32.4588C24.7839 32.6052 24.5781 32.4501 24.5781 32.1123C24.5781 31.7744 24.7839 31.383 25.0366 31.2365L28.5138 29.2266C28.7665 29.0801 28.9713 29.2352 28.9713 29.573C28.9713 29.9109 28.7665 30.3024 28.5138 30.4488Z"
    fill="url(#paint18_linear_2390_31464)" />
  <path
    d="M28.655 28.1526L19.6332 33.3613C19.459 33.4618 19.3164 33.3546 19.3164 33.121V26.4719C19.3183 26.3534 19.3479 26.2369 19.4029 26.1318C19.458 26.0268 19.5368 25.9361 19.6332 25.867L28.655 20.6584C28.8302 20.5569 28.9718 20.6641 28.9718 20.8977V27.5468C28.97 27.6655 28.9404 27.7821 28.8854 27.8873C28.8304 27.9925 28.7515 28.0834 28.655 28.1526Z"
    fill="#E0E0E0" />
  <path
    d="M20.2448 26.6384C20.2236 26.6385 20.203 26.6317 20.1861 26.6188C20.1693 26.606 20.1572 26.5879 20.1517 26.5674C20.1462 26.5469 20.1477 26.5252 20.1559 26.5057C20.1641 26.4861 20.1785 26.4699 20.197 26.4594L27.9946 21.961C28.0165 21.9484 28.0424 21.945 28.0668 21.9514C28.0911 21.9579 28.112 21.9737 28.1248 21.9954C28.1311 22.0063 28.1353 22.0183 28.137 22.0308C28.1387 22.0433 28.138 22.056 28.1348 22.0681C28.1316 22.0803 28.126 22.0917 28.1184 22.1018C28.1107 22.1118 28.1012 22.1202 28.0903 22.1265L20.2927 26.625C20.2782 26.6336 20.2617 26.6382 20.2448 26.6384Z"
    fill="white" />
  <path
    d="M20.2471 27.5438C20.2262 27.5436 20.2059 27.5366 20.1894 27.5238C20.1729 27.511 20.161 27.4931 20.1556 27.473C20.1502 27.4528 20.1515 27.4314 20.1594 27.4121C20.1673 27.3927 20.1813 27.3765 20.1992 27.3658L27.9969 22.8673C28.0187 22.8559 28.0442 22.8534 28.0679 22.8602C28.0916 22.8671 28.1117 22.8829 28.1241 22.9043C28.1364 22.9256 28.1401 22.951 28.1342 22.9749C28.1283 22.9989 28.1134 23.0197 28.0926 23.0329L20.2949 27.5314C20.2803 27.5396 20.2638 27.5439 20.2471 27.5438Z"
    fill="white" />
  <path
    d="M20.2448 28.4504C20.2236 28.4506 20.203 28.4437 20.1861 28.4308C20.1693 28.418 20.1572 28.3999 20.1517 28.3794C20.1462 28.3589 20.1477 28.3372 20.1559 28.3177C20.1641 28.2981 20.1785 28.2819 20.197 28.2714L27.9946 23.773C28.0165 23.7604 28.0424 23.757 28.0668 23.7634C28.0911 23.7699 28.112 23.7857 28.1248 23.8074C28.1311 23.8183 28.1353 23.8303 28.137 23.8428C28.1387 23.8553 28.138 23.868 28.1348 23.8801C28.1316 23.8923 28.126 23.9038 28.1184 23.9138C28.1107 23.9238 28.1012 23.9322 28.0903 23.9386L20.2927 28.437C20.2782 28.4456 20.2617 28.4502 20.2448 28.4504Z"
    fill="white" />
  <path
    d="M20.2471 29.3558C20.2262 29.3555 20.2059 29.3485 20.1894 29.3357C20.1729 29.3229 20.161 29.3051 20.1556 29.2849C20.1502 29.2647 20.1515 29.2433 20.1594 29.224C20.1673 29.2046 20.1813 29.1884 20.1992 29.1777L27.9969 24.6793C28.0078 24.673 28.0199 24.6689 28.0324 24.6673C28.0449 24.6657 28.0576 24.6665 28.0698 24.6698C28.0819 24.6731 28.0933 24.6788 28.1033 24.6865C28.1133 24.6942 28.1217 24.7038 28.128 24.7147C28.1343 24.7256 28.1383 24.7377 28.14 24.7502C28.1416 24.7627 28.1407 24.7754 28.1374 24.7876C28.1341 24.7998 28.1285 24.8112 28.1208 24.8212C28.1131 24.8312 28.1035 24.8395 28.0926 24.8458L20.2949 29.3443C20.2803 29.3522 20.2638 29.3562 20.2471 29.3558Z"
    fill="white" />
  <path
    d="M20.2448 30.2621C20.2236 30.2622 20.203 30.2553 20.1861 30.2425C20.1693 30.2296 20.1572 30.2116 20.1517 30.1911C20.1462 30.1706 20.1477 30.1489 20.1559 30.1294C20.1641 30.1098 20.1785 30.0935 20.197 30.0831L27.9946 25.5846C28.0165 25.5732 28.0419 25.5706 28.0656 25.5775C28.0893 25.5844 28.1095 25.6002 28.1218 25.6215C28.1342 25.6429 28.1378 25.6682 28.1319 25.6922C28.1261 25.7162 28.1111 25.737 28.0903 25.7502L20.2927 30.2487C20.2783 30.2576 20.2617 30.2622 20.2448 30.2621Z"
    fill="white" />
  <path
    d="M20.2474 31.1678C20.2307 31.1677 20.2143 31.1632 20.1998 31.1548C20.1854 31.1464 20.1734 31.1344 20.1651 31.1199C20.1525 31.0981 20.1491 31.0721 20.1555 31.0477C20.162 31.0234 20.1778 31.0025 20.1995 30.9897L27.9972 26.4913C28.0081 26.485 28.0202 26.4809 28.0327 26.4793C28.0452 26.4777 28.0579 26.4786 28.0701 26.4818C28.0822 26.4851 28.0936 26.4908 28.1036 26.4985C28.1136 26.5062 28.122 26.5158 28.1283 26.5267C28.1346 26.5376 28.1386 26.5497 28.1403 26.5622C28.1419 26.5747 28.141 26.5874 28.1377 26.5996C28.1344 26.6118 28.1288 26.6232 28.1211 26.6332C28.1134 26.6432 28.1038 26.6515 28.0929 26.6578L20.2952 31.1563C20.2806 31.1642 20.2641 31.1682 20.2474 31.1678Z"
    fill="white" />
  <path
    d="M20.2448 32.0741C20.2236 32.0742 20.203 32.0673 20.1861 32.0545C20.1693 32.0416 20.1572 32.0236 20.1517 32.0031C20.1462 31.9826 20.1477 31.9609 20.1559 31.9414C20.1641 31.9218 20.1785 31.9055 20.197 31.8951L27.9946 27.3966C28.0165 27.3852 28.0419 27.3827 28.0656 27.3895C28.0893 27.3964 28.1095 27.4122 28.1218 27.4336C28.1342 27.4549 28.1378 27.4802 28.1319 27.5042C28.1261 27.5282 28.1111 27.549 28.0903 27.5622L20.2927 32.0607C20.2782 32.0693 20.2617 32.0739 20.2448 32.0741Z"
    fill="white" />
  <defs>
    <linearGradient id="paint0_linear_2390_31464" x1="12.1564" y1="10.3678" x2="13.1106"
      y2="10.9162" gradientUnits="userSpaceOnUse">
      <stop stop-color="#763ED7" />
      <stop offset="1" stop-color="#E2D1FF" />
    </linearGradient>
    <linearGradient id="paint1_linear_2390_31464" x1="15.4325" y1="7.77539" x2="15.4325"
      y2="9.75121" gradientUnits="userSpaceOnUse">
      <stop stop-color="#763ED7" />
      <stop offset="1" stop-color="#E2D1FF" />
    </linearGradient>
    <linearGradient id="paint2_linear_2390_31464" x1="14.8346" y1="9.05029" x2="14.8346"
      y2="10.3362" gradientUnits="userSpaceOnUse">
      <stop stop-color="#763ED7" />
      <stop offset="1" stop-color="#E2D1FF" />
    </linearGradient>
    <linearGradient id="paint3_linear_2390_31464" x1="12.5762" y1="20.7974" x2="12.5762" y2="22.533"
      gradientUnits="userSpaceOnUse">
      <stop stop-color="#763ED7" />
      <stop offset="1" stop-color="#E2D1FF" />
    </linearGradient>
    <linearGradient id="paint4_linear_2390_31464" x1="15.4306" y1="18.7432" x2="15.4306"
      y2="20.7171" gradientUnits="userSpaceOnUse">
      <stop stop-color="#763ED7" />
      <stop offset="1" stop-color="#E2D1FF" />
    </linearGradient>
    <linearGradient id="paint5_linear_2390_31464" x1="14.8346" y1="20.0156" x2="14.8346"
      y2="21.3015" gradientUnits="userSpaceOnUse">
      <stop stop-color="#763ED7" />
      <stop offset="1" stop-color="#E2D1FF" />
    </linearGradient>
    <linearGradient id="paint6_linear_2390_31464" x1="22.9759" y1="26.8047" x2="22.9759"
      y2="30.1471" gradientUnits="userSpaceOnUse">
      <stop stop-color="#763ED7" />
      <stop offset="1" stop-color="#E2D1FF" />
    </linearGradient>
    <linearGradient id="paint7_linear_2390_31464" x1="24.1441" y1="9.71924" x2="24.1441"
      y2="16.7877" gradientUnits="userSpaceOnUse">
      <stop stop-color="#763ED7" />
      <stop offset="1" stop-color="#E2D1FF" />
    </linearGradient>
    <linearGradient id="paint8_linear_2390_31464" x1="19.5138" y1="17.7852" x2="20.4637"
      y2="18.3336" gradientUnits="userSpaceOnUse">
      <stop stop-color="#763ED7" />
      <stop offset="1" stop-color="#E2D1FF" />
    </linearGradient>
    <linearGradient id="paint9_linear_2390_31464" x1="22.8463" y1="15.1382" x2="22.8463"
      y2="17.1143" gradientUnits="userSpaceOnUse">
      <stop stop-color="#763ED7" />
      <stop offset="1" stop-color="#E2D1FF" />
    </linearGradient>
    <linearGradient id="paint10_linear_2390_31464" x1="22.2466" y1="16.4131" x2="22.2466"
      y2="17.6988" gradientUnits="userSpaceOnUse">
      <stop stop-color="#763ED7" />
      <stop offset="1" stop-color="#E2D1FF" />
    </linearGradient>
    <linearGradient id="paint11_linear_2390_31464" x1="21.513" y1="17.6948" x2="21.513" y2="24.8907"
      gradientUnits="userSpaceOnUse">
      <stop stop-color="#763ED7" />
      <stop offset="1" stop-color="#E2D1FF" />
    </linearGradient>
    <linearGradient id="paint12_linear_2390_31464" x1="21.5256" y1="20.7437" x2="21.5256"
      y2="23.8552" gradientUnits="userSpaceOnUse">
      <stop stop-color="#763ED7" />
      <stop offset="1" stop-color="#E2D1FF" />
    </linearGradient>
    <linearGradient id="paint13_linear_2390_31464" x1="21.5151" y1="19.9194" x2="22.0025"
      y2="20.2008" gradientUnits="userSpaceOnUse">
      <stop stop-color="#763ED7" />
      <stop offset="1" stop-color="#E2D1FF" />
    </linearGradient>
    <linearGradient id="paint14_linear_2390_31464" x1="26.7747" y1="14.6763" x2="26.7747"
      y2="21.8716" gradientUnits="userSpaceOnUse">
      <stop stop-color="#763ED7" />
      <stop offset="1" stop-color="#E2D1FF" />
    </linearGradient>
    <linearGradient id="paint15_linear_2390_31464" x1="26.7756" y1="17.6367" x2="26.7756"
      y2="20.7483" gradientUnits="userSpaceOnUse">
      <stop stop-color="#763ED7" />
      <stop offset="1" stop-color="#E2D1FF" />
    </linearGradient>
    <linearGradient id="paint16_linear_2390_31464" x1="27.0086" y1="16.5093" x2="27.0086"
      y2="17.3994" gradientUnits="userSpaceOnUse">
      <stop stop-color="#763ED7" />
      <stop offset="1" stop-color="#E2D1FF" />
    </linearGradient>
    <linearGradient id="paint17_linear_2390_31464" x1="21.513" y1="32.2524" x2="21.513" y2="35.595"
      gradientUnits="userSpaceOnUse">
      <stop stop-color="#763ED7" />
      <stop offset="1" stop-color="#E2D1FF" />
    </linearGradient>
    <linearGradient id="paint18_linear_2390_31464" x1="26.7747" y1="29.1714" x2="26.7747"
      y2="32.5139" gradientUnits="userSpaceOnUse">
      <stop stop-color="#763ED7" />
      <stop offset="1" stop-color="#E2D1FF" />
    </linearGradient>
  </defs>
</svg>