<svg width="80" height="80" viewBox="0 0 80 80" fill="none" xmlns="http://www.w3.org/2000/svg">
<rect x="0.5" y="0.5" width="79" height="79" rx="39.5" fill="white"/>
<rect x="0.5" y="0.5" width="79" height="79" rx="39.5" stroke="#E6E8EA"/>
<path d="M40 62C52.1503 62 62 52.3741 62 40.5C62 28.6259 52.1503 19 40 19C27.8497 19 18 28.6259 18 40.5C18 52.3741 27.8497 62 40 62Z" fill="#326AE8"/>
<path d="M27.8004 41.7353C27.3695 41.3395 27.369 40.66 27.7992 40.2635L30.9319 37.3764C31.311 37.0271 31.8935 37.0232 32.2772 37.3673L37.2772 41.8511C37.6601 42.1945 38.2411 42.1914 38.6203 41.8439L49.7791 31.6205C50.1621 31.2696 50.75 31.2704 51.1321 31.6222L54.2026 34.45C54.6322 34.8456 54.6328 35.5237 54.2039 35.92L38.5624 50.3747C38.1801 50.728 37.5906 50.7289 37.2072 50.3767L27.8004 41.7353Z" fill="white"/>
</svg>
