<svg width="80" height="80" viewBox="0 0 80 80" fill="none" xmlns="http://www.w3.org/2000/svg">
<rect x="0.5" y="0.5" width="79" height="79" rx="39.5" fill="white"/>
<rect x="0.5" y="0.5" width="79" height="79" rx="39.5" stroke="#E6E8EA"/>
<path d="M63.4461 51.845L31.4258 65.1849L20.137 38.0958L31.9203 21.2637L52.165 24.755L63.4461 51.845Z" fill="url(#paint0_linear_2385_12606)"/>
<path opacity="0.2" d="M63.4461 51.845L31.4258 65.1849L20.137 38.0958L31.9203 21.2637L52.165 24.755L63.4461 51.845Z" fill="black"/>
<path d="M60.7817 50.5253L32.3653 62.3593L17.1787 25.887L38.2736 17.1012L48.4825 21.0003L60.7817 50.5253Z" fill="url(#paint1_linear_2385_12606)"/>
<path d="M38.2734 17.1011L48.4824 21.0001L41.1687 24.0475L38.2734 17.1011Z" fill="url(#paint2_linear_2385_12606)"/>
<path d="M34.8659 28.7765C35.9838 28.299 37.2046 28.1129 38.414 28.2357C39.6234 28.3585 40.7819 28.7861 41.781 29.4785C42.7801 30.171 43.5872 31.1056 44.1267 32.195C44.6662 33.2843 44.9205 34.4927 44.8658 35.7071C44.7685 36.5301 44.3869 37.2933 43.7868 37.8649C43.68 37.9493 43.5605 38.0161 43.4326 38.0627C43.2333 38.1615 43.0128 38.21 42.7904 38.2041C42.568 38.1982 42.3505 38.138 42.1566 38.0288C41.8549 37.8504 41.6137 37.5854 41.4646 37.2682L41.1873 36.6326C41.0447 37.1113 40.8002 37.5536 40.4706 37.9289C40.141 38.3043 39.7342 38.604 39.2779 38.8074C38.3559 39.1814 37.3245 39.1812 36.4027 38.8068C35.4809 38.4325 34.7414 37.7135 34.3412 36.8027C33.941 35.8918 33.9118 34.8608 34.2596 33.9287C34.6075 32.9965 35.3051 32.2368 36.2041 31.8108C37.1125 31.443 38.1296 31.4501 39.0328 31.8304C39.9359 32.2108 40.6517 32.9334 41.0233 33.8402L41.0877 33.9899L41.0992 34.0906L42.3011 36.8265C42.3653 36.9679 42.463 37.0914 42.5859 37.1863C42.6494 37.2101 42.7177 37.2184 42.785 37.2107C42.8524 37.2029 42.9169 37.1793 42.9734 37.1418L43.1308 37.0766C43.5145 36.6948 43.7365 36.18 43.7508 35.639C43.8221 34.6723 43.6459 33.7034 43.2387 32.8238C42.7487 31.7162 41.9412 30.7787 40.9184 30.13C39.8957 29.4813 38.7035 29.1504 37.4927 29.1792C36.2818 29.208 35.1067 29.5952 34.116 30.2919C33.1252 30.9886 32.3633 31.9633 31.9265 33.093C31.4897 34.2227 31.3977 35.4565 31.6622 36.6385C31.9266 37.8204 32.5356 38.8974 33.4122 39.7333C34.2887 40.5691 35.3934 41.1263 36.5866 41.3343C37.7798 41.5423 39.0078 41.3918 40.1155 40.9019C40.591 40.7104 41.0373 40.4529 41.441 40.137C41.4881 40.0943 41.544 40.0624 41.6047 40.0435C41.6655 40.0245 41.7296 40.0191 41.7926 40.0276C41.8557 40.0361 41.9161 40.0582 41.9697 40.0924C42.0233 40.1267 42.0688 40.1722 42.103 40.2258C42.1488 40.2724 42.1836 40.3287 42.2049 40.3905C42.2261 40.4524 42.2331 40.5182 42.2255 40.5831C42.2179 40.6481 42.1958 40.7105 42.1609 40.7657C42.126 40.821 42.0791 40.8677 42.0237 40.9024C41.5636 41.2701 41.0577 41.5764 40.5187 41.8136C39.6623 42.1905 38.74 42.395 37.8046 42.4154C36.8691 42.4359 35.9389 42.2719 35.0668 41.9328C33.3056 41.2481 31.8885 39.8917 31.1274 38.1621C30.7505 37.3057 30.546 36.3834 30.5255 35.448C30.5051 34.5126 30.669 33.5823 31.0081 32.7102C31.3472 31.8381 31.8547 31.0414 32.5017 30.3655C33.1487 29.6895 33.9224 29.1477 34.7788 28.7708L34.8659 28.7765ZM38.8521 37.8355C39.494 37.5246 39.9868 36.9724 40.2229 36.2993C40.4589 35.6262 40.4189 34.8871 40.1117 34.2434C39.979 33.9227 39.7833 33.6317 39.5363 33.3879C39.2893 33.144 38.9959 32.9521 38.6735 32.8235C38.3511 32.6949 38.0062 32.6323 37.6591 32.6392C37.3121 32.6462 36.9699 32.7226 36.6529 32.864C36.3359 33.0055 36.0505 33.209 35.8134 33.4626C35.5764 33.7161 35.3926 34.0147 35.2728 34.3405C35.1531 34.6663 35.0999 35.0128 35.1163 35.3595C35.1328 35.7063 35.2185 36.0462 35.3686 36.3592C35.6349 37.0168 36.1514 37.5418 36.8046 37.8186C37.4579 38.0954 38.1943 38.1015 38.8521 37.8355Z" fill="#C0C6D2"/>
<path d="M54.9825 31.5369L63.4422 51.8447L31.4374 65.1827L22.9778 44.8749C24.674 45.0804 26.3678 45.3333 28.0598 45.5706C29.7518 45.808 31.4534 46.06 33.1412 46.3292C35.0273 46.6149 36.9082 46.9248 38.7987 47.2493L38.8041 47.2958L43.0462 47.9938C43.8696 46.8234 44.6931 45.6529 45.5261 44.4971C45.5261 44.4971 45.5261 44.4971 45.4796 44.5024L45.5493 44.4944C46.6582 42.9377 47.7702 41.386 48.8854 39.8391C49.8893 38.462 50.9009 37.0841 51.9202 35.7052C52.9253 34.2705 53.9366 32.8899 54.9825 31.5369Z" fill="url(#paint3_linear_2385_12606)"/>
<defs>
<linearGradient id="paint0_linear_2385_12606" x1="38.9729" y1="20.4529" x2="43.95" y2="63.745" gradientUnits="userSpaceOnUse">
<stop stop-color="#729DFF"/>
<stop offset="1" stop-color="#114BCD"/>
</linearGradient>
<linearGradient id="paint1_linear_2385_12606" x1="36.5763" y1="17.2964" x2="41.6345" y2="61.2937" gradientUnits="userSpaceOnUse">
<stop stop-color="#F6F7FA"/>
<stop offset="1" stop-color="#CBD2E2"/>
</linearGradient>
<linearGradient id="paint2_linear_2385_12606" x1="43.0901" y1="16.5473" x2="43.9161" y2="23.7317" gradientUnits="userSpaceOnUse">
<stop stop-color="#EDF0F6"/>
<stop offset="1" stop-color="#D8DBE2"/>
</linearGradient>
<linearGradient id="paint3_linear_2385_12606" x1="41.4547" y1="33.0921" x2="44.9652" y2="63.6275" gradientUnits="userSpaceOnUse">
<stop stop-color="#729DFF"/>
<stop offset="1" stop-color="#114BCD"/>
</linearGradient>
</defs>
</svg>
