<svg width="1856" height="1050" viewBox="0 0 1856 1050" fill="none" xmlns="http://www.w3.org/2000/svg">
<g clip-path="url(#clip0_0_3)">
<rect x="1632.23" y="-151" width="95" height="452.878" rx="47.5" transform="rotate(45 1632.23 -151)" fill="#FF6D9D"/>
<rect x="1634.17" y="456" width="95" height="181.265" rx="47.5" transform="rotate(45 1634.17 456)" fill="#FFA957"/>
<rect x="1852.25" y="244" width="95" height="257.74" rx="47.5" transform="rotate(45 1852.25 244)" fill="#4BEFBD"/>
<rect x="442.233" y="185" width="95" height="452.878" rx="47.5" transform="rotate(45 442.233 185)" fill="#FFA957"/>
<rect x="67.2327" y="543" width="95" height="452.878" rx="47.5" transform="rotate(45 67.2327 543)" fill="#CE8FFF"/>
<rect x="139.233" y="213" width="95" height="452.878" rx="47.5" transform="rotate(45 139.233 213)" fill="#FF6397"/>
<rect x="1497" y="312" width="95" height="261.633" rx="47.5" transform="rotate(45 1497 312)" fill="#CE8FFF"/>
<rect x="253.978" y="663.276" width="95" height="439.789" rx="47.5" transform="rotate(45 253.978 663.276)" fill="#5DE5FF"/>
<rect x="419.207" y="504" width="95" height="182.871" rx="47.5" transform="rotate(45 419.207 504)" fill="#FFDE4E"/>
<rect x="1865.26" y="-53" width="95" height="459.802" rx="47.5" transform="rotate(45 1865.26 -53)" fill="#5DE5FF"/>
</g>
<defs>
<clipPath id="clip0_0_3">
<rect width="1856" height="1050" fill="white"/>
</clipPath>
</defs>
</svg>
