<svg width="48" height="48" viewBox="0 0 48 48" fill="none" xmlns="http://www.w3.org/2000/svg">
<g id="camera_alt">
<path id="Vector" d="M40 10H33.66L30 6H18L14.34 10H8C5.8 10 4 11.8 4 14V38C4 40.2 5.8 42 8 42H40C42.2 42 44 40.2 44 38V14C44 11.8 42.2 10 40 10ZM40 38H8V14H16.1L19.76 10H28.24L31.9 14H40V38ZM24 16C18.48 16 14 20.48 14 26C14 31.52 18.48 36 24 36C29.52 36 34 31.52 34 26C34 20.48 29.52 16 24 16ZM24 32C20.7 32 18 29.3 18 26C18 22.7 20.7 20 24 20C27.3 20 30 22.7 30 26C30 29.3 27.3 32 24 32Z" fill="#727272"/>
</g>
</svg>
